<?xml version="1.0" encoding="UTF-8" standalone="no"?>
<!-- Created with Inkscape (http://www.inkscape.org/) -->

<svg
   version="1.1"
   id="svg1"
   width="55.011719"
   height="17.24276"
   viewBox="0 0 55.011719 17.24276"
   xmlns="http://www.w3.org/2000/svg"
   xmlns:svg="http://www.w3.org/2000/svg">
  <defs
     id="defs1" />
  <g
     id="g1"
     transform="translate(-4.7734375,5.7329622e-4)">
    <path
       id="path1"
       d="M 0,0 H 34.01628"
       style="fill:none;stroke:#000000;stroke-width:0.79701;stroke-linecap:butt;stroke-linejoin:miter;stroke-miterlimit:10;stroke-dasharray:none;stroke-opacity:1"
       transform="matrix(1.3333333,0,0,-1.3333333,10.178667,2.8173333)" />
    <path
       id="path2"
       d="M 2.11343,0 C 2.11343,1.16722 1.16722,2.11343 0,2.11343 -1.16722,2.11343 -2.11343,1.16722 -2.11343,0 c 0,-1.16722 0.94621,-2.11343 2.11343,-2.11343 1.16722,0 2.11343,0.94621 2.11343,2.11343 z"
       style="fill:#000000;fill-opacity:1;fill-rule:nonzero;stroke:none"
       transform="matrix(1.3333333,0,0,-1.3333333,10.178667,2.8173333)" />
    <g
       id="g2"
       aria-label="v&#10;0"
       transform="matrix(1.3333333,0,0,1.3333333,4.428,15.741333)">
      <path
         id="path3"
         d="m 4.3137656,-3.3040469 c 0,-0.6328125 -0.328125,-0.6679687 -0.4101562,-0.6679687 -0.2226563,0 -0.4570313,0.2460937 -0.4570313,0.4453125 0,0.140625 0.082031,0.2109375 0.140625,0.2695312 0.2460938,0.2226563 0.328125,0.5039063 0.328125,0.7382813 0,0.3984375 -0.5742187,2.39062498 -1.6054687,2.39062498 -0.6796875,0 -0.6796875,-0.62109375 -0.6796875,-0.78515625 0,-0.38671873 0.1289062,-0.84375003 0.4453125,-1.66406253 0.140625,-0.375 0.1757812,-0.4570312 0.1757812,-0.6328125 0,-0.4335937 -0.328125,-0.75 -0.7734375,-0.75 -0.85546872,0 -1.21874997,1.2773438 -1.21874997,1.3828125 0,0.082031 0.0703125,0.1054688 0.12890625,0.1054688 0.09375,0 0.10546875,-0.058594 0.140625,-0.1757813 0.1875,-0.65625 0.55078122,-1.0898437 0.92578122,-1.0898437 0.1757813,0 0.2109375,0.1171875 0.2109375,0.2929687 0,0.1523438 -0.035156,0.3164063 -0.1171875,0.5273438 -0.3164062,0.8671875 -0.5390625,1.4414062 -0.5390625,1.8867187 0,0.84375003 0.6445313,1.12500003 1.265625,1.12500003 1.5,0 2.0390625,-2.82421873 2.0390625,-3.39843753 z m 0,0"
         style="fill:#000000;fill-opacity:1;fill-rule:nonzero;stroke:none" />
      <path
         id="path4"
         d="m 7.7561484,-0.91342187 c 0,-0.43359373 0,-2.06250003 -1.453125,-2.06250003 -1.4648437,0 -1.4648437,1.6289063 -1.4648437,2.06250003 0,0.43359375 0,2.03906247 1.4648437,2.03906247 1.453125,0 1.453125,-1.60546872 1.453125,-2.03906247 z m -1.453125,1.83984375 c -0.2578125,0 -0.6679687,-0.1171875 -0.8085937,-0.609375 -0.09375,-0.3515625 -0.09375,-0.9375 -0.09375,-1.30078125 0,-0.39843753 0,-0.86718753 0.082031,-1.18359373 0.1523438,-0.5390625 0.609375,-0.6210938 0.8203125,-0.6210938 0.2695313,0 0.6679688,0.1289063 0.796875,0.5859375 0.09375,0.3164063 0.09375,0.75 0.09375,1.21875003 0,0.375 0,0.984374995 -0.1054687,1.3125 C 6.9241172,0.85610938 6.4905234,0.92642188 6.3030234,0.92642188 Z m 0,0"
         style="fill:#000000;fill-opacity:1;fill-rule:nonzero;stroke:none" />
    </g>
    <path
       id="path5"
       d="m 36.12971,0 c 0,1.16722 -0.94621,2.11343 -2.11343,2.11343 -1.16724,0 -2.11345,-0.94621 -2.11345,-2.11343 0,-1.16722 0.94621,-2.11343 2.11345,-2.11343 1.16722,0 2.11343,0.94621 2.11343,2.11343 z"
       style="fill:#000000;fill-opacity:1;fill-rule:nonzero;stroke:none"
       transform="matrix(1.3333333,0,0,-1.3333333,10.178667,2.8173333)" />
    <g
       id="g5"
       aria-label="v&#10;1"
       transform="matrix(1.3333333,0,0,1.3333333,49.784,15.741333)">
      <path
         id="path6"
         d="m 4.3133672,-3.3040469 c 0,-0.6328125 -0.328125,-0.6679687 -0.4101563,-0.6679687 -0.2226562,0 -0.4570312,0.2460937 -0.4570312,0.4453125 0,0.140625 0.082031,0.2109375 0.140625,0.2695312 0.2460937,0.2226563 0.328125,0.5039063 0.328125,0.7382813 0,0.3984375 -0.5742188,2.39062498 -1.6054688,2.39062498 -0.6796875,0 -0.6796875,-0.62109375 -0.6796875,-0.78515625 0,-0.38671873 0.1289063,-0.84375003 0.4453125,-1.66406253 0.140625,-0.375 0.1757813,-0.4570312 0.1757813,-0.6328125 0,-0.4335937 -0.328125,-0.75 -0.7734375,-0.75 -0.85546876,0 -1.21875001,1.2773438 -1.21875001,1.3828125 0,0.082031 0.0703125,0.1054688 0.12890625,0.1054688 0.09375,0 0.10546875,-0.058594 0.140625,-0.1757813 0.1875,-0.65625 0.55078126,-1.0898437 0.92578126,-1.0898437 0.1757812,0 0.2109375,0.1171875 0.2109375,0.2929687 0,0.1523438 -0.035156,0.3164063 -0.1171875,0.5273438 -0.3164063,0.8671875 -0.5390625,1.4414062 -0.5390625,1.8867187 0,0.84375003 0.6445312,1.12500003 1.265625,1.12500003 1.5,0 2.0390625,-2.82421873 2.0390625,-3.39843753 z m 0,0"
         style="fill:#000000;fill-opacity:1;fill-rule:nonzero;stroke:none" />
      <path
         id="path7"
         d="m 6.6219609,-2.8001406 c 0,-0.1757813 -0.023437,-0.1757813 -0.1992187,-0.1757813 -0.3984375,0.375 -1.0078125,0.375 -1.21875,0.375 v 0.234375 c 0.1523437,0 0.5507812,0 0.9023437,-0.1640625 v 3.02343753 c 0,0.1875 0,0.26953125 -0.609375,0.26953125 H 5.2391484 v 0.234375 c 0.328125,-0.0234375 0.796875,-0.0234375 1.125,-0.0234375 0.3398438,0 0.796875,0 1.1367188,0.0234375 v -0.234375 H 7.2430547 c -0.6210938,0 -0.6210938,-0.0820313 -0.6210938,-0.26953125 z m 0,0"
         style="fill:#000000;fill-opacity:1;fill-rule:nonzero;stroke:none" />
    </g>
  </g>
</svg>
