<?xml version="1.0" encoding="UTF-8" standalone="no"?>
<!-- Created with Inkscape (http://www.inkscape.org/) -->

<svg
   version="1.1"
   id="svg1"
   width="9.9960938"
   height="19.121187"
   viewBox="0 0 9.9960936 19.121187"
   xmlns="http://www.w3.org/2000/svg"
   xmlns:svg="http://www.w3.org/2000/svg">
  <defs
     id="defs1" />
  <g
     id="g1"
     transform="translate(-4.7734375,9.3272731e-5)">
    <path
       id="path1"
       d="M 2.81807,0 C 2.81807,1.55638 1.55638,2.81807 0,2.81807 -1.55638,2.81807 -2.81807,1.55638 -2.81807,0 c 0,-1.55638 1.26169,-2.81807 2.81807,-2.81807 1.55638,0 2.81807,1.26169 2.81807,2.81807 z"
       style="fill:#000000;fill-opacity:1;fill-rule:nonzero;stroke:none"
       transform="matrix(1.3333333,0,0,-1.3333333,10.178667,3.7573333)" />
    <g
       id="g2"
       aria-label="v&#10;0"
       transform="matrix(1.3333333,0,0,1.3333333,4.428,17.621333)">
      <path
         id="path2"
         d="m 4.3137656,-3.3048672 c 0,-0.6328125 -0.328125,-0.6679687 -0.4101562,-0.6679687 -0.2226563,0 -0.4570313,0.2460937 -0.4570313,0.4453125 0,0.140625 0.082031,0.2109375 0.140625,0.2695312 0.2460938,0.2226563 0.328125,0.5039063 0.328125,0.7382813 0,0.3984375 -0.5742187,2.39062496 -1.6054687,2.39062496 -0.6796875,0 -0.6796875,-0.62109375 -0.6796875,-0.78515625 0,-0.38671871 0.1289062,-0.84375001 0.4453125,-1.66406251 0.140625,-0.375 0.1757812,-0.4570312 0.1757812,-0.6328125 0,-0.4335937 -0.328125,-0.75 -0.7734375,-0.75 -0.85546872,0 -1.21874997,1.2773438 -1.21874997,1.3828125 0,0.082031 0.0703125,0.1054688 0.12890625,0.1054688 0.09375,0 0.10546875,-0.058594 0.140625,-0.1757813 0.1875,-0.65625 0.55078122,-1.0898437 0.92578122,-1.0898437 0.1757813,0 0.2109375,0.1171875 0.2109375,0.2929687 0,0.1523438 -0.035156,0.3164063 -0.1171875,0.5273438 -0.3164062,0.8671875 -0.5390625,1.4414062 -0.5390625,1.8867187 0,0.84375001 0.6445313,1.12500001 1.265625,1.12500001 1.5,0 2.0390625,-2.82421871 2.0390625,-3.39843751 z m 0,0"
         style="fill:#000000;fill-opacity:1;fill-rule:nonzero;stroke:none" />
      <path
         id="path3"
         d="m 7.7561484,-0.91424219 c 0,-0.43359371 0,-2.06250001 -1.453125,-2.06250001 -1.4648437,0 -1.4648437,1.6289063 -1.4648437,2.06250001 0,0.43359375 0,2.03906249 1.4648437,2.03906249 1.453125,0 1.453125,-1.60546874 1.453125,-2.03906249 z m -1.453125,1.83984375 c -0.2578125,0 -0.6679687,-0.1171875 -0.8085937,-0.609375 -0.09375,-0.3515625 -0.09375,-0.9375 -0.09375,-1.30078125 0,-0.39843751 0,-0.86718751 0.082031,-1.18359371 0.1523438,-0.5390625 0.609375,-0.6210938 0.8203125,-0.6210938 0.2695313,0 0.6679688,0.1289063 0.796875,0.5859375 0.09375,0.3164063 0.09375,0.75 0.09375,1.21875001 0,0.375 0,0.9843750025 -0.1054687,1.3125 C 6.9241172,0.85528906 6.4905234,0.92560156 6.3030234,0.92560156 Z m 0,0"
         style="fill:#000000;fill-opacity:1;fill-rule:nonzero;stroke:none" />
    </g>
  </g>
</svg>
