<?xml version="1.0" encoding="UTF-8" standalone="no"?>
<!-- Created with Inkscape (http://www.inkscape.org/) -->

<svg
   version="1.1"
   id="svg1"
   width="55.011719"
   height="68.136719"
   viewBox="0 0 55.011719 68.136718"
   xmlns="http://www.w3.org/2000/svg"
   xmlns:svg="http://www.w3.org/2000/svg">
  <defs
     id="defs1" />
  <g
     id="g1"
     transform="translate(-4.7734375,-4.2773439)">
    <path
       id="path1"
       d="M 0,0 H 34.01628 L 17.00813,29.48083 Z"
       style="fill:#ccccff;fill-opacity:1;fill-rule:nonzero;stroke:#000000;stroke-width:0.79701;stroke-linecap:butt;stroke-linejoin:miter;stroke-miterlimit:10;stroke-dasharray:none;stroke-opacity:1"
       transform="matrix(1.3333333,0,0,-1.3333333,10.178667,57.989333)" />
    <path
       id="path2"
       d="M 2.11343,0 C 2.11343,1.16722 1.16722,2.11343 0,2.11343 -1.16722,2.11343 -2.11343,1.16722 -2.11343,0 c 0,-1.16722 0.94621,-2.11343 2.11343,-2.11343 1.16722,0 2.11343,0.94621 2.11343,2.11343 z"
       style="fill:#000000;fill-opacity:1;fill-rule:nonzero;stroke:none"
       transform="matrix(1.3333333,0,0,-1.3333333,10.178667,57.989333)" />
    <g
       id="g2"
       aria-label="v&#10;0"
       transform="matrix(1.3333333,0,0,1.3333333,4.428,70.913333)">
      <path
         id="path3"
         d="m 4.3137656,-3.3041406 c 0,-0.6328125 -0.328125,-0.6679688 -0.4101562,-0.6679688 -0.2226563,0 -0.4570313,0.2460938 -0.4570313,0.4453125 0,0.140625 0.082031,0.2109375 0.140625,0.2695313 0.2460938,0.2226562 0.328125,0.5039062 0.328125,0.7382812 0,0.3984375 -0.5742187,2.39062503 -1.6054687,2.39062503 -0.6796875,0 -0.6796875,-0.62109375 -0.6796875,-0.78515625 0,-0.38671878 0.1289062,-0.84374998 0.4453125,-1.66406248 0.140625,-0.375 0.1757812,-0.4570313 0.1757812,-0.6328125 0,-0.4335938 -0.328125,-0.75 -0.7734375,-0.75 -0.85546872,0 -1.21874997,1.2773437 -1.21874997,1.3828125 0,0.082031 0.0703125,0.1054687 0.12890625,0.1054687 0.09375,0 0.10546875,-0.058594 0.140625,-0.1757812 0.1875,-0.65625 0.55078122,-1.0898438 0.92578122,-1.0898438 0.1757813,0 0.2109375,0.1171875 0.2109375,0.2929688 0,0.1523437 -0.035156,0.3164062 -0.1171875,0.5273437 -0.3164062,0.8671875 -0.5390625,1.4414063 -0.5390625,1.8867188 0,0.84374998 0.6445313,1.12499998 1.265625,1.12499998 1.5,0 2.0390625,-2.82421878 2.0390625,-3.39843748 z m 0,0"
         style="fill:#000000;fill-opacity:1;fill-rule:nonzero;stroke:none" />
      <path
         id="path4"
         d="m 7.7561484,-0.91351562 c 0,-0.43359378 0,-2.06249998 -1.453125,-2.06249998 -1.4648437,0 -1.4648437,1.6289062 -1.4648437,2.06249998 0,0.43359375 0,2.03906252 1.4648437,2.03906252 1.453125,0 1.453125,-1.60546877 1.453125,-2.03906252 z m -1.453125,1.83984375 c -0.2578125,0 -0.6679687,-0.1171875 -0.8085937,-0.609375 -0.09375,-0.3515625 -0.09375,-0.9375 -0.09375,-1.30078125 0,-0.39843748 0,-0.86718748 0.082031,-1.18359378 0.1523438,-0.5390625 0.609375,-0.6210937 0.8203125,-0.6210937 0.2695313,0 0.6679688,0.1289062 0.796875,0.5859375 0.09375,0.3164062 0.09375,0.75 0.09375,1.21874998 0,0.375 0,0.984374995 -0.1054687,1.3125 C 6.9241172,0.85601563 6.4905234,0.92632813 6.3030234,0.92632813 Z m 0,0"
         style="fill:#000000;fill-opacity:1;fill-rule:nonzero;stroke:none" />
    </g>
    <path
       id="path5"
       d="m 36.12971,0 c 0,1.16722 -0.94621,2.11343 -2.11343,2.11343 -1.16724,0 -2.11345,-0.94621 -2.11345,-2.11343 0,-1.16722 0.94621,-2.11343 2.11345,-2.11343 1.16722,0 2.11343,0.94621 2.11343,2.11343 z"
       style="fill:#000000;fill-opacity:1;fill-rule:nonzero;stroke:none"
       transform="matrix(1.3333333,0,0,-1.3333333,10.178667,57.989333)" />
    <g
       id="g5"
       aria-label="v&#10;1"
       transform="matrix(1.3333333,0,0,1.3333333,49.784,70.913333)">
      <path
         id="path6"
         d="m 4.3133672,-3.3041406 c 0,-0.6328125 -0.328125,-0.6679688 -0.4101563,-0.6679688 -0.2226562,0 -0.4570312,0.2460938 -0.4570312,0.4453125 0,0.140625 0.082031,0.2109375 0.140625,0.2695313 0.2460937,0.2226562 0.328125,0.5039062 0.328125,0.7382812 0,0.3984375 -0.5742188,2.39062503 -1.6054688,2.39062503 -0.6796875,0 -0.6796875,-0.62109375 -0.6796875,-0.78515625 0,-0.38671878 0.1289063,-0.84374998 0.4453125,-1.66406248 0.140625,-0.375 0.1757813,-0.4570313 0.1757813,-0.6328125 0,-0.4335938 -0.328125,-0.75 -0.7734375,-0.75 -0.85546876,0 -1.21875001,1.2773437 -1.21875001,1.3828125 0,0.082031 0.0703125,0.1054687 0.12890625,0.1054687 0.09375,0 0.10546875,-0.058594 0.140625,-0.1757812 0.1875,-0.65625 0.55078126,-1.0898438 0.92578126,-1.0898438 0.1757812,0 0.2109375,0.1171875 0.2109375,0.2929688 0,0.1523437 -0.035156,0.3164062 -0.1171875,0.5273437 -0.3164063,0.8671875 -0.5390625,1.4414063 -0.5390625,1.8867188 0,0.84374998 0.6445312,1.12499998 1.265625,1.12499998 1.5,0 2.0390625,-2.82421878 2.0390625,-3.39843748 z m 0,0"
         style="fill:#000000;fill-opacity:1;fill-rule:nonzero;stroke:none" />
      <path
         id="path7"
         d="m 6.6219609,-2.8002344 c 0,-0.1757812 -0.023437,-0.1757812 -0.1992187,-0.1757812 -0.3984375,0.375 -1.0078125,0.375 -1.21875,0.375 v 0.234375 c 0.1523437,0 0.5507812,0 0.9023437,-0.1640625 v 3.02343748 c 0,0.1875 0,0.26953125 -0.609375,0.26953125 H 5.2391484 v 0.234375 c 0.328125,-0.0234375 0.796875,-0.0234375 1.125,-0.0234375 0.3398438,0 0.796875,0 1.1367188,0.0234375 v -0.234375 H 7.2430547 c -0.6210938,0 -0.6210938,-0.0820313 -0.6210938,-0.26953125 z m 0,0"
         style="fill:#000000;fill-opacity:1;fill-rule:nonzero;stroke:none" />
    </g>
    <path
       id="path8"
       d="m 19.12157,29.48083 c 0,1.16723 -0.94622,2.11345 -2.11344,2.11345 -1.16722,0 -2.11343,-0.94622 -2.11343,-2.11345 0,-1.16722 0.94621,-2.11343 2.11343,-2.11343 1.16722,0 2.11344,0.94621 2.11344,2.11343 z"
       style="fill:#000000;fill-opacity:1;fill-rule:nonzero;stroke:none"
       transform="matrix(1.3333333,0,0,-1.3333333,10.178667,57.989333)" />
    <g
       id="g8"
       aria-label="v&#10;2"
       transform="matrix(1.3333333,0,0,1.3333333,27.105333,9.5746667)">
      <path
         id="path9"
         d="m 4.3126016,-3.3050234 c 0,-0.6328125 -0.328125,-0.6679688 -0.4101563,-0.6679688 -0.2226562,0 -0.4570312,0.2460938 -0.4570312,0.4453125 0,0.140625 0.082031,0.2109375 0.140625,0.2695313 0.2460937,0.2226562 0.328125,0.5039062 0.328125,0.7382812 0,0.3984375 -0.5742188,2.39062501 -1.6054688,2.39062501 -0.6796875,0 -0.6796875,-0.62109375 -0.6796875,-0.78515625 0,-0.38671876 0.1289063,-0.84374996 0.4453125,-1.66406246 0.140625,-0.375 0.1757813,-0.4570313 0.1757813,-0.6328125 0,-0.4335938 -0.328125,-0.75 -0.7734375,-0.75 -0.85546879,0 -1.21875004,1.2773437 -1.21875004,1.3828125 0,0.082031 0.0703125,0.1054687 0.12890625,0.1054687 0.09375,0 0.10546875,-0.058594 0.140625,-0.1757812 0.1875,-0.65625 0.55078129,-1.0898438 0.92578129,-1.0898438 0.1757812,0 0.2109375,0.1171875 0.2109375,0.2929688 0,0.1523437 -0.035156,0.3164062 -0.1171875,0.5273437 -0.3164063,0.8671875 -0.5390625,1.4414063 -0.5390625,1.8867188 0,0.84374996 0.6445312,1.12499996 1.265625,1.12499996 1.5,0 2.0390625,-2.82421876 2.0390625,-3.39843746 z m 0,0"
         style="fill:#000000;fill-opacity:1;fill-rule:nonzero;stroke:none" />
      <path
         id="path10"
         d="M 7.6876016,-0.11752344 H 7.4766641 c -0.023437,0.08203125 -0.082031,0.46875 -0.1640625,0.5390625 -0.046875,0.0351563 -0.5273438,0.0351563 -0.609375,0.0351563 h -1.125 l 0.7734375,-0.62109375 c 0.1992187,-0.1640625 0.7265625,-0.5390625 0.9140625,-0.7265625 0.1757812,-0.17578121 0.421875,-0.48046871 0.421875,-0.90234381 0,-0.75 -0.6679688,-1.1835936 -1.4765625,-1.1835936 -0.7617188,0 -1.3007813,0.5039061 -1.3007813,1.0664062 0,0.3046875 0.2578125,0.3398438 0.3164063,0.3398438 0.1523437,0 0.328125,-0.1054688 0.328125,-0.3164063 0,-0.140625 -0.082031,-0.328125 -0.3398438,-0.328125 0.1289063,-0.3046875 0.5039063,-0.5273437 0.9140625,-0.5273437 0.6210938,0 0.9609375,0.46875 0.9609375,0.9492187 0,0.421875 -0.28125,0.85546871 -0.703125,1.24218746 l -1.4179687,1.3007812 c -0.058594,0.0585938 -0.058594,0.0585938 -0.058594,0.24609375 h 2.6015625 z m 0,0"
         style="fill:#000000;fill-opacity:1;fill-rule:nonzero;stroke:none" />
    </g>
  </g>
</svg>
