<?xml version="1.0" encoding="UTF-8" standalone="no"?>
<!-- Created with Inkscape (http://www.inkscape.org/) -->

<svg
   version="1.1"
   id="svg1"
   width="378.0509"
   height="12.093751"
   viewBox="0 0 378.0509 12.093751"
   xmlns="http://www.w3.org/2000/svg"
   xmlns:svg="http://www.w3.org/2000/svg">
  <defs
     id="defs1" />
  <g
     id="g1"
     transform="translate(-19.925781,0.13671963)">
    <path
       id="path1"
       d="M 9.9495547,-2.5439766 V -2.7549141 H 3.359375e-4 v 0.2109375 z m 6.6240233,-1.4414062 c 0.457031,0 0.527344,0.1289062 0.527344,0.5390625 v 2.68359374 c 0,0.45703125 -0.117188,0.45703125 -0.785156,0.45703125 v 0.3046875 c 0.328125,-0.01171875 0.855468,-0.03515625 1.113281,-0.03515625 0.246094,0 0.738281,0.0234375 1.101562,0.03515625 v -0.3046875 c -0.667968,0 -0.773437,0 -0.773437,-0.45703125 V -4.4189766 l -1.253906,0.09375 c -0.164063,0.011719 -0.175782,0.023437 -0.1875,0.023437 -0.01172,0.011719 -0.03516,0.011719 -0.175782,0.011719 h -1.171875 v -1.125 c 0,-0.9960938 0.855469,-1.3945313 1.464844,-1.3945313 0.304688,0 0.667969,0.1054688 0.867188,0.328125 -0.410157,0.023437 -0.46875,0.3046875 -0.46875,0.46875 0,0.328125 0.257812,0.4570313 0.445312,0.4570313 0.222656,0 0.457031,-0.1640625 0.457031,-0.4570313 0,-0.5976562 -0.550781,-1.0078125 -1.289062,-1.0078125 -0.925781,0 -2.109375,0.5039063 -2.109375,1.59375 v 1.1367188 h -0.785156 v 0.3046875 h 0.785156 v 3.22265624 c 0,0.45703125 -0.105469,0.45703125 -0.773438,0.45703125 v 0.3046875 c 0.328125,-0.01171875 0.855469,-0.03515625 1.101563,-0.03515625 0.246094,0 0.738281,0.0234375 1.113281,0.03515625 v -0.3046875 c -0.667969,0 -0.785156,0 -0.785156,-0.45703125 V -3.9853828 Z m 4.456055,2.2734375 c -0.867188,0 -0.867188,-0.9960938 -0.867188,-1.2304688 0,-0.2695312 0.01172,-0.5859375 0.152344,-0.8320312 0.08203,-0.1171875 0.316406,-0.3984375 0.714844,-0.3984375 0.867187,0 0.867187,0.9960937 0.867187,1.21875 0,0.2695312 -0.01172,0.5976562 -0.164062,0.84375 -0.08203,0.1171875 -0.304688,0.3984375 -0.703125,0.3984375 z m -1.160156,0.3867187 c 0,-0.035156 0,-0.2695312 0.175781,-0.46875 0.386719,0.28125 0.796875,0.3046875 0.984375,0.3046875 0.925781,0 1.605469,-0.6796875 1.605469,-1.453125 0,-0.3632812 -0.152344,-0.7382812 -0.398438,-0.9609375 0.351563,-0.3398437 0.714844,-0.3867187 0.890625,-0.3867187 0.02344,0 0.07031,0 0.105469,0 -0.117188,0.046875 -0.164063,0.1523437 -0.164063,0.2695312 0,0.1757813 0.128907,0.2929688 0.292969,0.2929688 0.09375,0 0.28125,-0.070312 0.28125,-0.2929688 0,-0.1757812 -0.117187,-0.4921875 -0.503906,-0.4921875 -0.199219,0 -0.632813,0.058594 -1.054688,0.46875 -0.421875,-0.328125 -0.84375,-0.3632812 -1.054687,-0.3632812 -0.925781,0 -1.617188,0.6914062 -1.617188,1.453125 0,0.4453125 0.222657,0.8203125 0.46875,1.03125 -0.128906,0.1523437 -0.304687,0.4804687 -0.304687,0.8203125 0,0.31640624 0.128906,0.69140624 0.433594,0.89062499 -0.597657,0.17578125 -0.914063,0.59765625 -0.914063,0.99609375 0,0.71484376 0.984375,1.26562496 2.203125,1.26562496 1.171875,0 2.203125,-0.5039062 2.203125,-1.28906246 0,-0.33984375 -0.140625,-0.85546875 -0.644531,-1.125 -0.527344,-0.28125 -1.101563,-0.28125 -1.710938,-0.28125 -0.246093,0 -0.679687,0 -0.75,-0.0117188 -0.316406,-0.046875 -0.527343,-0.35156254 -0.527343,-0.66796874 z m 1.441406,3.1523438 c -1.007813,0 -1.699219,-0.515625 -1.699219,-1.04296876 0,-0.45703125 0.375,-0.8203125 0.820313,-0.85546875 h 0.585937 c 0.855469,0 1.96875,0 1.96875,0.85546875 0,0.53906246 -0.703125,1.04296876 -1.675781,1.04296876 z m 5.238281,-3.6914063 v -0.5742187 h -2.648437 v 0.5742187 z m 2.314453,-2.4257812 v -1.1601563 c 0,-0.8789062 0.480469,-1.359375 0.914063,-1.359375 0.03516,0 0.175781,0 0.328125,0.070312 -0.117188,0.046875 -0.292969,0.1757813 -0.292969,0.421875 0,0.234375 0.152344,0.4335938 0.421875,0.4335938 0.292969,0 0.433594,-0.1992188 0.433594,-0.4453125 0,-0.3632813 -0.363282,-0.6914063 -0.890625,-0.6914063 -0.703125,0 -1.546875,0.5273438 -1.546875,1.5820313 v 1.1484375 h -0.785157 v 0.3046875 h 0.785157 v 3.22265624 c 0,0.45703125 -0.105469,0.45703125 -0.773438,0.45703125 v 0.3046875 c 0.386719,-0.01171875 0.855469,-0.03515625 1.136719,-0.03515625 0.398437,0 0.867187,0 1.265625,0.03515625 v -0.3046875 h -0.210938 c -0.738281,0 -0.761718,-0.1171875 -0.761718,-0.46875 V -3.9853828 h 1.136718 v -0.3046875 z m 5.985352,2.15625 c 0,-1.2773438 -0.996094,-2.3320313 -2.191407,-2.3320313 -1.253906,0 -2.214843,1.0898438 -2.214843,2.3320313 0,1.28906249 1.03125,2.23828124 2.203125,2.23828124 1.207031,0 2.203125,-0.97265625 2.203125,-2.23828124 z m -2.191407,1.99218749 c -0.433593,0 -0.867187,-0.2109375 -1.136718,-0.66796875 -0.257813,-0.43359374 -0.257813,-1.04296874 -0.257813,-1.40625004 0,-0.3867187 0,-0.9257812 0.246094,-1.359375 0.269531,-0.4570312 0.738281,-0.6679687 1.136719,-0.6679687 0.433593,0 0.867187,0.2226562 1.125,0.6445312 0.257812,0.4335938 0.257812,1.0078125 0.257812,1.3828125 0,0.3632813 0,0.9023438 -0.222656,1.33593754 -0.222656,0.4453125 -0.65625,0.73828125 -1.148438,0.73828125 z M 36.806,-3.3056953 v -1.1015625 l -1.382813,0.1171875 v 0.3046875 c 0.691407,0 0.773438,0.070312 0.773438,0.5625 v 2.66015624 c 0,0.45703125 -0.105469,0.45703125 -0.773438,0.45703125 v 0.3046875 c 0.386719,-0.01171875 0.855469,-0.03515625 1.136719,-0.03515625 0.398438,0 0.867188,0 1.265625,0.03515625 v -0.3046875 h -0.210937 c -0.738282,0 -0.761719,-0.1171875 -0.761719,-0.46875 V -2.3096016 c 0,-0.984375 0.421875,-1.875 1.183594,-1.875 0.05859,0 0.08203,0 0.105468,0.011719 -0.03516,0.011719 -0.234375,0.1289062 -0.234375,0.3867187 0,0.28125 0.210938,0.4335938 0.433594,0.4335938 0.175781,0 0.421875,-0.1289063 0.421875,-0.4453125 0,-0.3164063 -0.304687,-0.609375 -0.726562,-0.609375 -0.738282,0 -1.089844,0.6679687 -1.230469,1.1015623 z m 3.339844,-0.1171875 v 2.66015624 c 0,0.45703125 -0.117188,0.45703125 -0.785157,0.45703125 v 0.3046875 c 0.351563,-0.01171875 0.855469,-0.03515625 1.125,-0.03515625 0.257813,0 0.785157,0.0234375 1.113282,0.03515625 v -0.3046875 c -0.65625,0 -0.773438,0 -0.773438,-0.45703125 V -2.5908516 c 0,-1.03125 0.714844,-1.59375 1.347656,-1.59375 0.621094,0 0.738282,0.5390625 0.738282,1.1015625 v 2.32031254 c 0,0.45703125 -0.117188,0.45703125 -0.773438,0.45703125 v 0.3046875 c 0.339844,-0.01171875 0.855469,-0.03515625 1.125,-0.03515625 0.257813,0 0.773438,0.0234375 1.113281,0.03515625 v -0.3046875 c -0.667968,0 -0.785156,0 -0.785156,-0.45703125 V -2.5908516 c 0,-1.03125 0.714844,-1.59375 1.347656,-1.59375 0.632813,0 0.738282,0.5390625 0.738282,1.1015625 v 2.32031254 c 0,0.45703125 -0.105469,0.45703125 -0.773438,0.45703125 v 0.3046875 c 0.351563,-0.01171875 0.855469,-0.03515625 1.125,-0.03515625 0.257813,0 0.773438,0.0234375 1.113281,0.03515625 v -0.3046875 c -0.515625,0 -0.761718,0 -0.773437,-0.3046875 V -2.5088203 c 0,-0.8554688 0,-1.171875 -0.316406,-1.5234375 -0.128907,-0.1757813 -0.46875,-0.375 -1.042969,-0.375 -0.832031,0 -1.277344,0.5976562 -1.441406,0.984375 -0.140625,-0.8671875 -0.878907,-0.984375 -1.324219,-0.984375 -0.726563,0 -1.195313,0.4335937 -1.476563,1.0546875 v -1.0546875 l -1.40625,0.1171875 v 0.3046875 c 0.703125,0 0.785157,0.070312 0.785157,0.5625 z m 10.517578,2.66015624 c 0.03516,0.3984375 0.304687,0.8203125 0.773437,0.8203125 0.210938,0 0.820313,-0.140625 0.820313,-0.94921875 V -1.4424141 h -0.246094 v 0.55078129 c 0,0.5859375 -0.246094,0.64453125 -0.363281,0.64453125 -0.328125,0 -0.363281,-0.45703125 -0.363281,-0.50390625 V -2.7431953 c 0,-0.4101563 0,-0.8085938 -0.363282,-1.171875 -0.386718,-0.3867188 -0.878906,-0.5507813 -1.359375,-0.5507813 -0.820312,0 -1.511718,0.46875 -1.511718,1.125 0,0.3046875 0.199218,0.46875 0.457031,0.46875 0.28125,0 0.46875,-0.1992187 0.46875,-0.4570312 0,-0.1171875 -0.05859,-0.4453125 -0.515625,-0.4570313 0.269531,-0.3515625 0.761719,-0.4570312 1.078125,-0.4570312 0.492187,0 1.054687,0.3867187 1.054687,1.2773437 v 0.3632813 c -0.503906,0.035156 -1.207031,0.058594 -1.828125,0.3632812 -0.75,0.3398438 -0.996093,0.8554688 -0.996093,1.28906254 0,0.80859375 0.960937,1.0546875 1.59375,1.0546875 0.65625,0 1.113281,-0.3984375 1.300781,-0.8671875 z m -0.07031,-1.62890624 v 0.9960937 c 0,0.94921879 -0.714843,1.28906254 -1.160156,1.28906254 -0.492187,0 -0.902344,-0.3515625 -0.902344,-0.85546875 0,-0.53906249 0.421875,-1.37109379 2.0625,-1.42968749 z m 3.457032,-1.59375 h 1.429687 V -4.2900703 H 54.050144 V -6.1299141 H 53.80405 c -0.01172,0.8203125 -0.316406,1.8867188 -1.289063,1.921875 v 0.2226563 h 0.84375 v 2.7539062 c 0,1.21875004 0.925782,1.33593754 1.289063,1.33593754 0.703125,0 0.984375,-0.703125 0.984375,-1.33593754 v -0.5742187 h -0.246094 v 0.5507812 c 0,0.73828129 -0.304687,1.11328129 -0.667969,1.11328129 -0.667968,0 -0.667968,-0.90234379 -0.667968,-1.07812499 z m 4.063476,0.2226562 c 0,-0.2929687 -0.234375,-0.5273437 -0.527344,-0.5273437 -0.28125,0 -0.527343,0.234375 -0.527343,0.5273437 0,0.28125 0.246093,0.5273438 0.527343,0.5273438 0.292969,0 0.527344,-0.2460938 0.527344,-0.5273438 z m 0,3.23437504 c 0,-0.29296875 -0.234375,-0.52734374 -0.527344,-0.52734374 -0.28125,0 -0.527343,0.23437499 -0.527343,0.52734374 0,0.29296875 0.246093,0.52734375 0.527343,0.52734375 0.292969,0 0.527344,-0.234375 0.527344,-0.52734375 z m 7.365235,-1.40625004 c 0.222656,0.035156 1.03125,0.1992188 1.03125,0.9140625 0,0.51562504 -0.351563,0.91406254 -1.125,0.91406254 -0.832032,0 -1.195313,-0.57421875 -1.382813,-1.41796874 -0.03516,-0.1289063 -0.03516,-0.1757813 -0.140625,-0.1757813 -0.128906,0 -0.128906,0.070312 -0.128906,0.2578125 v 1.31250004 c 0,0.1640625 0,0.234375 0.105469,0.234375 0.05859,0 0.07031,0 0.257812,-0.19921875 0.01172,-0.01171875 0.01172,-0.03515625 0.199219,-0.22265625 0.433594,0.421875 0.878906,0.421875 1.089844,0.421875 1.148437,0 1.605468,-0.66796875 1.605468,-1.38281254 0,-0.5273437 -0.292968,-0.8203125 -0.421875,-0.9492187 -0.328125,-0.3164063 -0.714843,-0.3984375 -1.136718,-0.46875 -0.550782,-0.1171875 -1.21875,-0.2460938 -1.21875,-0.8203125 0,-0.3515625 0.257812,-0.7617188 1.113281,-0.7617188 1.101562,0 1.148437,0.9023438 1.171875,1.2070313 0,0.09375 0.09375,0.09375 0.117187,0.09375 0.128907,0 0.128907,-0.046875 0.128907,-0.2460938 v -0.9960937 c 0,-0.1757813 0,-0.2460938 -0.117188,-0.2460938 -0.04687,0 -0.07031,0 -0.199219,0.1171875 -0.02344,0.046875 -0.128906,0.1289063 -0.164062,0.1640625 -0.375,-0.28125 -0.785156,-0.28125 -0.9375,-0.28125 -1.21875,0 -1.59375,0.6679688 -1.59375,1.2304688 0,0.3398437 0.164062,0.6210937 0.433594,0.84375 0.316406,0.2578125 0.597656,0.3164062 1.3125,0.4570312 z m 6.002929,-1.3828125 c 0.08203,-0.234375 0.257813,-0.65625 0.914063,-0.6679687 v -0.3046875 c -0.234375,0.011719 -0.515625,0.023437 -0.75,0.023437 -0.234375,0 -0.691407,-0.023437 -0.867188,-0.023437 v 0.3046875 c 0.375,0.011719 0.480469,0.234375 0.480469,0.4335937 0,0.082031 -0.02344,0.1289063 -0.05859,0.234375 L 70.181,-0.77444531 69.067719,-3.5517891 c -0.05859,-0.140625 -0.05859,-0.1523437 -0.05859,-0.1757812 0,-0.2578125 0.386719,-0.2578125 0.5625,-0.2578125 v -0.3046875 c -0.292969,0 -0.855469,0.023437 -1.078125,0.023437 -0.269531,0 -0.667969,-0.011719 -0.972656,-0.023437 v 0.3046875 c 0.632812,0 0.667968,0.058594 0.796875,0.3632812 l 1.441406,3.53906254 c 0.05859,0.140625 0.07031,0.1875 0.199219,0.1875 0.128906,0 0.175781,-0.08203125 0.210937,-0.1875 z m 3.325196,1.6054688 c -0.867188,0 -0.867188,-0.9960938 -0.867188,-1.2304688 0,-0.2695312 0.01172,-0.5859375 0.152344,-0.8320312 0.08203,-0.1171875 0.316406,-0.3984375 0.714844,-0.3984375 0.867187,0 0.867187,0.9960937 0.867187,1.21875 0,0.2695312 -0.01172,0.5976562 -0.164062,0.84375 -0.08203,0.1171875 -0.304688,0.3984375 -0.703125,0.3984375 z m -1.160157,0.3867187 c 0,-0.035156 0,-0.2695312 0.175782,-0.46875 0.386718,0.28125 0.796875,0.3046875 0.984375,0.3046875 0.925781,0 1.605468,-0.6796875 1.605468,-1.453125 0,-0.3632812 -0.152343,-0.7382812 -0.398437,-0.9609375 0.351562,-0.3398437 0.714844,-0.3867187 0.890625,-0.3867187 0.02344,0 0.07031,0 0.105469,0 -0.117188,0.046875 -0.164063,0.1523437 -0.164063,0.2695312 0,0.1757813 0.128906,0.2929688 0.292969,0.2929688 0.09375,0 0.28125,-0.070312 0.28125,-0.2929688 0,-0.1757812 -0.117188,-0.4921875 -0.503906,-0.4921875 -0.199219,0 -0.632813,0.058594 -1.054688,0.46875 -0.421875,-0.328125 -0.84375,-0.3632812 -1.054687,-0.3632812 -0.925782,0 -1.617188,0.6914062 -1.617188,1.453125 0,0.4453125 0.222656,0.8203125 0.46875,1.03125 -0.128906,0.1523437 -0.304687,0.4804687 -0.304687,0.8203125 0,0.31640624 0.128906,0.69140624 0.433593,0.89062499 -0.597656,0.17578125 -0.914062,0.59765625 -0.914062,0.99609375 0,0.71484376 0.984375,1.26562496 2.203125,1.26562496 1.171875,0 2.203125,-0.5039062 2.203125,-1.28906246 0,-0.33984375 -0.140625,-0.85546875 -0.644531,-1.125 -0.527344,-0.28125 -1.101563,-0.28125 -1.710938,-0.28125 -0.246094,0 -0.679687,0 -0.75,-0.0117188 -0.316406,-0.046875 -0.527344,-0.35156254 -0.527344,-0.66796874 z m 1.441407,3.1523438 c -1.007813,0 -1.699219,-0.515625 -1.699219,-1.04296876 0,-0.45703125 0.375,-0.8203125 0.820312,-0.85546875 h 0.585938 c 0.855469,0 1.96875,0 1.96875,0.85546875 0,0.53906246 -0.703125,1.04296876 -1.675781,1.04296876 z m 15.75,-4.3710938 v -0.2109375 h -9.949219 v 0.2109375 z m 4.444335,0.035156 c 0.05859,-1.4882813 0.902344,-1.734375 1.242188,-1.734375 1.019531,0 1.125,1.3476562 1.125,1.734375 z m -0.01172,0.2109375 h 2.789062 c 0.210938,0 0.246094,0 0.246094,-0.2109375 0,-0.984375 -0.539063,-1.9570313 -1.78125,-1.9570313 -1.160156,0 -2.074219,1.03125 -2.074219,2.2734375 0,1.33593754 1.042969,2.29687504 2.191406,2.29687504 1.21875,0 1.664063,-1.1015625 1.664063,-1.28906254 0,-0.1054687 -0.08203,-0.1171875 -0.128906,-0.1171875 -0.09375,0 -0.117188,0.058594 -0.128907,0.140625 -0.351562,1.01953129 -1.253906,1.01953129 -1.347656,1.01953129 -0.503906,0 -0.902344,-0.29296875 -1.125,-0.66796875 C 95.270844,-1.2900703 95.270844,-1.9463203 95.270844,-2.2978828 Z m 4.488281,0.1289062 c 0,-1.6289062 0.820314,-2.0507812 1.347654,-2.0507812 0.0937,0 0.71484,0.011719 1.06641,0.375 -0.41016,0.023437 -0.46875,0.328125 -0.46875,0.4570312 0,0.2578125 0.1875,0.4570313 0.45703,0.4570313 0.25781,0 0.45703,-0.1640625 0.45703,-0.46875 0,-0.6796875 -0.75,-1.0664063 -1.52344,-1.0664063 -1.242184,0 -2.156247,1.078125 -2.156247,2.3085938 0,1.27734374 0.984375,2.26171874 2.144527,2.26171874 1.33594,0 1.65235,-1.19531254 1.65235,-1.28906254 0,-0.1054687 -0.10547,-0.1054687 -0.12891,-0.1054687 -0.0937,0 -0.11719,0.046875 -0.12891,0.1054687 -0.29296,0.92578129 -0.9375,1.04296879 -1.3125,1.04296879 -0.52734,0 -1.406244,-0.421875 -1.406244,-2.02734379 z m 4.098634,1.40625004 c 0,0.45703125 -0.11719,0.45703125 -0.78516,0.45703125 v 0.3046875 c 0.35156,-0.01171875 0.85547,-0.03515625 1.125,-0.03515625 0.25781,0 0.78516,0.0234375 1.11328,0.03515625 v -0.3046875 c -0.65625,0 -0.77343,0 -0.77343,-0.45703125 V -2.5908516 c 0,-1.03125 0.71484,-1.59375 1.34765,-1.59375 0.6211,0 0.73828,0.5390625 0.73828,1.1015625 v 2.32031254 c 0,0.45703125 -0.11718,0.45703125 -0.77343,0.45703125 v 0.3046875 c 0.33984,-0.01171875 0.85546,-0.03515625 1.125,-0.03515625 0.25781,0 0.77343,0.0234375 1.11328,0.03515625 v -0.3046875 c -0.51563,0 -0.77344,0 -0.78516,-0.3046875 V -2.5088203 c 0,-0.8554688 0,-1.171875 -0.30469,-1.5234375 -0.14062,-0.1757813 -0.46875,-0.375 -1.04297,-0.375 -0.84375,0 -1.27734,0.5976562 -1.4414,0.984375 v -3.4921875 l -1.44141,0.1054687 v 0.3164063 c 0.70313,0 0.78516,0.070312 0.78516,0.5507812 z m 9.12011,-1.37109374 c 0,-1.2773438 -0.99609,-2.3320313 -2.1914,-2.3320313 -1.25391,0 -2.21485,1.0898438 -2.21485,2.3320313 0,1.28906249 1.03125,2.23828124 2.20313,2.23828124 1.20703,0 2.20312,-0.97265625 2.20312,-2.23828124 z m -2.1914,1.99218749 c -0.4336,0 -0.86719,-0.2109375 -1.13672,-0.66796875 -0.25781,-0.43359374 -0.25781,-1.04296874 -0.25781,-1.40625004 0,-0.3867187 0,-0.9257812 0.24609,-1.359375 0.26953,-0.4570312 0.73828,-0.6679687 1.13672,-0.6679687 0.43359,0 0.86719,0.2226562 1.125,0.6445312 0.25781,0.4335938 0.25781,1.0078125 0.25781,1.3828125 0,0.3632813 0,0.9023438 -0.22265,1.33593754 -0.22266,0.4453125 -0.65625,0.73828125 -1.14844,0.73828125 z m 4.39746,-3.62109379 c 0,-0.2929687 -0.23438,-0.5273437 -0.52734,-0.5273437 -0.28125,0 -0.52735,0.234375 -0.52735,0.5273437 0,0.28125 0.2461,0.5273438 0.52735,0.5273438 0.29296,0 0.52734,-0.2460938 0.52734,-0.5273438 z m 0,3.23437504 c 0,-0.29296875 -0.23438,-0.52734374 -0.52734,-0.52734374 -0.28125,0 -0.52735,0.23437499 -0.52735,0.52734374 0,0.29296875 0.2461,0.52734375 0.52735,0.52734375 0.29296,0 0.52734,-0.234375 0.52734,-0.52734375 z m 7.02539,-3.76171874 v -1.1601563 c 0,-0.8789062 0.48047,-1.359375 0.91406,-1.359375 0.0352,0 0.17578,0 0.32813,0.070312 -0.11719,0.046875 -0.29297,0.1757813 -0.29297,0.421875 0,0.234375 0.15234,0.4335938 0.42187,0.4335938 0.29297,0 0.4336,-0.1992188 0.4336,-0.4453125 0,-0.3632813 -0.36328,-0.6914063 -0.89063,-0.6914063 -0.70312,0 -1.54687,0.5273438 -1.54687,1.5820313 v 1.1484375 h -0.78516 v 0.3046875 h 0.78516 v 3.22265624 c 0,0.45703125 -0.10547,0.45703125 -0.77344,0.45703125 v 0.3046875 c 0.38672,-0.01171875 0.85547,-0.03515625 1.13672,-0.03515625 0.39844,0 0.86719,0 1.26562,0.03515625 v -0.3046875 h -0.21093 c -0.73828,0 -0.76172,-0.1171875 -0.76172,-0.46875 V -3.9853828 h 1.13672 v -0.3046875 z m 4.61426,3.52734374 c 0.0351,0.3984375 0.30469,0.8203125 0.77344,0.8203125 0.21093,0 0.82031,-0.140625 0.82031,-0.94921875 V -1.4424141 h -0.2461 v 0.55078129 c 0,0.5859375 -0.24609,0.64453125 -0.36328,0.64453125 -0.32812,0 -0.36328,-0.45703125 -0.36328,-0.50390625 V -2.7431953 c 0,-0.4101563 0,-0.8085938 -0.36328,-1.171875 -0.38672,-0.3867188 -0.87891,-0.5507813 -1.35937,-0.5507813 -0.82032,0 -1.51172,0.46875 -1.51172,1.125 0,0.3046875 0.19922,0.46875 0.45703,0.46875 0.28125,0 0.46875,-0.1992187 0.46875,-0.4570312 0,-0.1171875 -0.0586,-0.4453125 -0.51563,-0.4570313 0.26953,-0.3515625 0.76172,-0.4570312 1.07813,-0.4570312 0.49219,0 1.05469,0.3867187 1.05469,1.2773437 v 0.3632813 c -0.50391,0.035156 -1.20704,0.058594 -1.82813,0.3632812 -0.75,0.3398438 -0.99609,0.8554688 -0.99609,1.28906254 0,0.80859375 0.96093,1.0546875 1.59375,1.0546875 0.65625,0 1.11328,-0.3984375 1.30078,-0.8671878 z m -0.0703,-1.62890624 v 0.9960937 c 0,0.94921879 -0.71485,1.28906254 -1.16016,1.28906254 -0.49219,0 -0.90234,-0.3515625 -0.90234,-0.85546875 0,-0.53906249 0.42187,-1.37109379 2.0625,-1.42968749 z m 3.49511,-4.5234375 -1.42968,0.1054687 v 0.3164063 c 0.70312,0 0.77343,0.070312 0.77343,0.5507812 v 5.17968754 c 0,0.45703125 -0.10547,0.45703125 -0.77343,0.45703125 v 0.3046875 c 0.32812,-0.01171875 0.85546,-0.03515625 1.10156,-0.03515625 0.25781,0 0.73828,0.0234375 1.11328,0.03515625 v -0.3046875 c -0.66797,0 -0.78516,0 -0.78516,-0.45703125 z m 3.08203,4.9804687 c 0.22266,0.035156 1.03125,0.1992188 1.03125,0.9140625 0,0.51562504 -0.35156,0.91406254 -1.125,0.91406254 -0.83203,0 -1.19531,-0.57421875 -1.38281,-1.41796874 -0.0351,-0.1289063 -0.0351,-0.1757813 -0.14062,-0.1757813 -0.12891,0 -0.12891,0.070312 -0.12891,0.2578125 v 1.31250004 c 0,0.1640625 0,0.234375 0.10547,0.234375 0.0586,0 0.0703,0 0.25781,-0.19921875 0.0117,-0.01171875 0.0117,-0.03515625 0.19922,-0.22265625 0.43359,0.421875 0.87891,0.421875 1.08984,0.421875 1.14844,0 1.60547,-0.66796875 1.60547,-1.38281254 0,-0.5273437 -0.29297,-0.8203125 -0.42187,-0.9492187 -0.32813,-0.3164063 -0.71485,-0.3984375 -1.13672,-0.46875 -0.55078,-0.1171875 -1.21875,-0.2460938 -1.21875,-0.8203125 0,-0.3515625 0.25781,-0.7617188 1.11328,-0.7617188 1.10156,0 1.14844,0.9023438 1.17188,1.2070313 0,0.09375 0.0937,0.09375 0.11718,0.09375 0.12891,0 0.12891,-0.046875 0.12891,-0.2460938 v -0.9960937 c 0,-0.1757813 0,-0.2460938 -0.11719,-0.2460938 -0.0469,0 -0.0703,0 -0.19922,0.1171875 -0.0234,0.046875 -0.1289,0.1289063 -0.16406,0.1640625 -0.375,-0.28125 -0.78516,-0.28125 -0.9375,-0.28125 -1.21875,0 -1.59375,0.6679688 -1.59375,1.2304688 0,0.3398437 0.16406,0.6210937 0.43359,0.84375 0.31641,0.2578125 0.59766,0.3164062 1.3125,0.4570312 z m 2.97071,-0.5742187 c 0.0586,-1.4882813 0.90234,-1.734375 1.24218,-1.734375 1.01954,0 1.125,1.3476562 1.125,1.734375 z m -0.0117,0.2109375 h 2.78906 c 0.21094,0 0.24609,0 0.24609,-0.2109375 0,-0.984375 -0.53906,-1.9570313 -1.78125,-1.9570313 -1.16015,0 -2.07421,1.03125 -2.07421,2.2734375 0,1.33593754 1.04296,2.29687504 2.1914,2.29687504 1.21875,0 1.66406,-1.1015625 1.66406,-1.28906254 0,-0.1054687 -0.082,-0.1171875 -0.1289,-0.1171875 -0.0937,0 -0.11719,0.058594 -0.12891,0.140625 -0.35156,1.01953129 -1.2539,1.01953129 -1.34765,1.01953129 -0.50391,0 -0.90235,-0.29296875 -1.125,-0.66796875 C 136.2894,-1.2900703 136.2894,-1.9463203 136.2894,-2.2978828 Z m 16.59082,-0.2460938 V -2.7549141 H 142.931 v 0.2109375 z m 6.63574,-1.4414062 c 0.45703,0 0.52734,0.1289062 0.52734,0.5390625 v 2.68359374 c 0,0.45703125 -0.11718,0.45703125 -0.78515,0.45703125 v 0.3046875 c 0.32812,-0.01171875 0.85547,-0.03515625 1.11328,-0.03515625 0.24609,0 0.73828,0.0234375 1.10156,0.03515625 v -0.3046875 c -0.66797,0 -0.77344,0 -0.77344,-0.45703125 V -4.4189766 l -1.2539,0.09375 c -0.16406,0.011719 -0.17578,0.023437 -0.1875,0.023437 -0.0117,0.011719 -0.0352,0.011719 -0.17578,0.011719 h -1.17188 v -1.125 c 0,-0.9960938 0.85547,-1.3945313 1.46485,-1.3945313 0.30468,0 0.66796,0.1054688 0.86718,0.328125 -0.41015,0.023437 -0.46875,0.3046875 -0.46875,0.46875 0,0.328125 0.25782,0.4570313 0.44532,0.4570313 0.22265,0 0.45703,-0.1640625 0.45703,-0.4570313 0,-0.5976562 -0.55078,-1.0078125 -1.28907,-1.0078125 -0.92578,0 -2.10937,0.5039063 -2.10937,1.59375 v 1.1367188 h -0.78516 v 0.3046875 h 0.78516 v 3.22265624 c 0,0.45703125 -0.10547,0.45703125 -0.77344,0.45703125 v 0.3046875 c 0.32813,-0.01171875 0.85547,-0.03515625 1.10156,-0.03515625 0.2461,0 0.73829,0.0234375 1.11329,0.03515625 v -0.3046875 c -0.66797,0 -0.78516,0 -0.78516,-0.45703125 V -3.9853828 Z m 4.45606,2.2734375 c -0.86719,0 -0.86719,-0.9960938 -0.86719,-1.2304688 0,-0.2695312 0.0117,-0.5859375 0.15234,-0.8320312 0.082,-0.1171875 0.31641,-0.3984375 0.71485,-0.3984375 0.86718,0 0.86718,0.9960937 0.86718,1.21875 0,0.2695312 -0.0117,0.5976562 -0.16406,0.84375 -0.082,0.1171875 -0.30469,0.3984375 -0.70312,0.3984375 z m -1.16016,0.3867187 c 0,-0.035156 0,-0.2695312 0.17578,-0.46875 0.38672,0.28125 0.79688,0.3046875 0.98438,0.3046875 0.92578,0 1.60546,-0.6796875 1.60546,-1.453125 0,-0.3632812 -0.15234,-0.7382812 -0.39843,-0.9609375 0.35156,-0.3398437 0.71484,-0.3867187 0.89062,-0.3867187 0.0234,0 0.0703,0 0.10547,0 -0.11719,0.046875 -0.16406,0.1523437 -0.16406,0.2695312 0,0.1757813 0.1289,0.2929688 0.29297,0.2929688 0.0937,0 0.28125,-0.070312 0.28125,-0.2929688 0,-0.1757812 -0.11719,-0.4921875 -0.50391,-0.4921875 -0.19922,0 -0.63281,0.058594 -1.05469,0.46875 -0.42187,-0.328125 -0.84375,-0.3632812 -1.05468,-0.3632812 -0.92579,0 -1.61719,0.6914062 -1.61719,1.453125 0,0.4453125 0.22265,0.8203125 0.46875,1.03125 -0.12891,0.1523437 -0.30469,0.4804687 -0.30469,0.8203125 0,0.31640624 0.12891,0.69140624 0.43359,0.89062499 -0.59765,0.17578125 -0.91406,0.59765625 -0.91406,0.99609375 0,0.71484376 0.98438,1.26562496 2.20313,1.26562496 1.17187,0 2.20312,-0.5039062 2.20312,-1.28906246 0,-0.33984375 -0.14062,-0.85546875 -0.64453,-1.125 -0.52734,-0.28125 -1.10156,-0.28125 -1.71094,-0.28125 -0.24609,0 -0.67968,0 -0.75,-0.0117188 -0.3164,-0.046875 -0.52734,-0.35156244 -0.52734,-0.66796874 z m 1.44141,3.1523438 c -1.00782,0 -1.69922,-0.515625 -1.69922,-1.04296876 0,-0.45703125 0.375,-0.8203125 0.82031,-0.85546875 h 0.58594 c 0.85547,0 1.96875,0 1.96875,0.85546875 0,0.53906246 -0.70313,1.04296876 -1.67578,1.04296876 z m 5.23828,-3.6914063 v -0.5742187 h -2.64844 v 0.5742187 z m 6.73242,-1.4882812 c 0.17578,-0.4921875 0.49219,-0.6210938 0.84375,-0.6328125 v -0.3046875 c -0.22266,0.011719 -0.51563,0.023437 -0.72656,0.023437 -0.29297,0 -0.73829,-0.023437 -0.9375,-0.023437 v 0.3046875 c 0.36328,0.011719 0.58593,0.1875 0.58593,0.4804687 0,0.058594 0,0.082031 -0.0469,0.2109375 l -0.91406,2.54296879 -0.98438,-2.77734379 c -0.0352,-0.1171875 -0.0469,-0.140625 -0.0469,-0.1875 0,-0.2695312 0.38671,-0.2695312 0.58593,-0.2695312 v -0.3046875 c -0.29297,0 -0.79687,0.023437 -1.03125,0.023437 -0.30468,0 -0.59765,-0.011719 -0.89062,-0.023437 v 0.3046875 c 0.36328,0 0.52734,0.023437 0.62109,0.1523437 0.0586,0.058594 0.16406,0.3515625 0.23438,0.5390625 l -0.85547,2.41406254 -0.94922,-2.66015624 c -0.0469,-0.1171875 -0.0469,-0.140625 -0.0469,-0.1757813 0,-0.2695312 0.38672,-0.2695312 0.58594,-0.2695312 v -0.3046875 c -0.29297,0 -0.85547,0.023437 -1.08984,0.023437 -0.0352,0 -0.5625,-0.011719 -0.92578,-0.023437 v 0.3046875 c 0.5039,0 0.62109,0.035156 0.73828,0.3515625 l 1.2539,3.52734374 c 0.0586,0.140625 0.082,0.2109375 0.21094,0.2109375 0.12891,0 0.15235,-0.05859375 0.19922,-0.19921875 l 1.00781,-2.81249999 1.01953,2.82421874 c 0.0352,0.1171875 0.0703,0.1875 0.19922,0.1875 0.12891,0 0.15235,-0.08203125 0.19922,-0.1875 z m 2.78613,-1.0546875 -1.39453,0.1171875 v 0.3046875 c 0.65625,0 0.73828,0.058594 0.73828,0.5507812 v 2.67187504 c 0,0.45703125 -0.10547,0.45703125 -0.77344,0.45703125 v 0.3046875 c 0.31641,-0.01171875 0.85547,-0.03515625 1.10157,-0.03515625 0.33984,0 0.6914,0.0234375 1.03125,0.03515625 v -0.3046875 c -0.65625,0 -0.70313,-0.0585938 -0.70313,-0.4453125 z m 0.0469,-1.734375 c 0,-0.3164063 -0.2461,-0.5273438 -0.52735,-0.5273438 -0.3164,0 -0.52734,0.2695313 -0.52734,0.5273438 0,0.2695312 0.21094,0.5273437 0.52734,0.5273437 0.28125,0 0.52735,-0.1992187 0.52735,-0.5273437 z m 4.74902,5.58984374 v 0.65625 l 1.46484,-0.10546875 v -0.3046875 c -0.70312,0 -0.77343,-0.0703125 -0.77343,-0.5625 V -6.9150703 l -1.44141,0.1054687 v 0.3164063 c 0.70312,0 0.78516,0.070312 0.78516,0.5507812 v 2.15625 c -0.29297,-0.3632812 -0.72657,-0.6210937 -1.26563,-0.6210937 -1.17187,0 -2.21484,0.984375 -2.21484,2.2617187 0,1.26562504 0.97265,2.25000004 2.10937,2.25000004 0.64453,0 1.08985,-0.33984375 1.33594,-0.6562503 z m 0,-2.67187504 v 2.0507813 c 0,0.17578124 0,0.19921874 -0.10547,0.36328124 -0.30469,0.48046875 -0.75,0.703125 -1.18359,0.703125 -0.44532,0 -0.79688,-0.2578125 -1.04297,-0.64453125 -0.25781,-0.41015629 -0.29297,-0.97265629 -0.29297,-1.38281249 0,-0.3632813 0.0234,-0.9609375 0.31641,-1.4179688 0.21093,-0.3046875 0.58593,-0.6328125 1.125,-0.6328125 0.35156,0 0.76171,0.1523438 1.07812,0.5976563 0.10547,0.1640625 0.10547,0.1875 0.10547,0.3632812 z m 3.47168,-0.7617187 h 1.42969 v -0.3046875 h -1.42969 v -1.8398438 h -0.24609 c -0.0117,0.8203125 -0.31641,1.8867188 -1.28907,1.921875 v 0.2226563 h 0.84375 v 2.7539062 c 0,1.21875004 0.92578,1.33593754 1.28907,1.33593754 0.70312,0 0.98437,-0.703125 0.98437,-1.33593754 v -0.5742187 h -0.24609 v 0.5507812 c 0,0.73828129 -0.30469,1.11328129 -0.66797,1.11328129 -0.66797,0 -0.66797,-0.90234379 -0.66797,-1.07812499 z m 3.25488,3.22265624 c 0,0.45703125 -0.11719,0.45703125 -0.78515,0.45703125 v 0.3046875 c 0.35156,-0.01171875 0.85546,-0.03515625 1.125,-0.03515625 0.25781,0 0.78515,0.0234375 1.11328,0.03515625 v -0.3046875 c -0.65625,0 -0.77344,0 -0.77344,-0.45703125 V -2.5908516 c 0,-1.03125 0.71484,-1.59375 1.34766,-1.59375 0.62109,0 0.73828,0.5390625 0.73828,1.1015625 v 2.32031254 c 0,0.45703125 -0.11719,0.45703125 -0.77344,0.45703125 v 0.3046875 c 0.33984,-0.01171875 0.85547,-0.03515625 1.125,-0.03515625 0.25781,0 0.77344,0.0234375 1.11328,0.03515625 v -0.3046875 c -0.51562,0 -0.77344,0 -0.78516,-0.3046875 V -2.5088203 c 0,-0.8554688 0,-1.171875 -0.30468,-1.5234375 -0.14063,-0.1757813 -0.46875,-0.375 -1.04297,-0.375 -0.84375,0 -1.27735,0.5976562 -1.44141,0.984375 v -3.4921875 l -1.4414,0.1054687 v 0.3164063 c 0.70312,0 0.78515,0.070312 0.78515,0.5507812 z m 6.34278,-3.00000004 c 0,-0.2929687 -0.23438,-0.5273437 -0.52735,-0.5273437 -0.28125,0 -0.52734,0.234375 -0.52734,0.5273437 0,0.28125 0.24609,0.5273438 0.52734,0.5273438 0.29297,0 0.52735,-0.2460938 0.52735,-0.5273438 z m 0,3.23437504 c 0,-0.29296875 -0.23438,-0.52734374 -0.52735,-0.52734374 -0.28125,0 -0.52734,0.23437499 -0.52734,0.52734374 0,0.29296875 0.24609,0.52734375 0.52734,0.52734375 0.29297,0 0.52735,-0.234375 0.52735,-0.52734375 z m 6.54785,-0.234375 1.05468,-1.03125004 c 1.5586,-1.3710937 2.15625,-1.9101562 2.15625,-2.90625 0,-1.1367187 -0.90234,-1.9335937 -2.12109,-1.9335937 -1.125,0 -1.85156,0.9140625 -1.85156,1.8046875 0,0.5507812 0.49219,0.5507812 0.52734,0.5507812 0.16406,0 0.51563,-0.1171875 0.51563,-0.5273437 0,-0.2578125 -0.1875,-0.515625 -0.52735,-0.515625 -0.082,0 -0.10547,0 -0.1289,0.011719 0.22265,-0.6445312 0.76172,-1.0195312 1.33593,-1.0195312 0.91407,0 1.33594,0.8085937 1.33594,1.6289062 0,0.796875 -0.49219,1.5820313 -1.04297,2.203125 l -1.91015,2.13281254 c -0.10547,0.10546875 -0.10547,0.12890625 -0.10547,0.36328125 h 3.6914 l 0.28125,-1.73437499 h -0.25781 c -0.0469,0.3046875 -0.11719,0.73828124 -0.21094,0.89062499 -0.0703,0.0820313 -0.72656,0.0820313 -0.94921,0.0820313 z m 5.625,0.234375 c 0,-0.29296875 -0.23438,-0.52734374 -0.52735,-0.52734374 -0.28125,0 -0.52734,0.23437499 -0.52734,0.52734374 0,0.29296875 0.24609,0.52734375 0.52734,0.52734375 0.29297,0 0.52735,-0.234375 0.52735,-0.52734375 z m 5.33496,-1.47656254 c 0,-1.1835937 -0.82031,-2.1796875 -1.89844,-2.1796875 -0.48047,0 -0.90234,0.1640625 -1.26562,0.5039063 v -1.9335938 c 0.19921,0.058594 0.52734,0.1289063 0.84375,0.1289063 1.23046,0 1.93359,-0.9140625 1.93359,-1.0429688 0,-0.058594 -0.0352,-0.1054687 -0.10547,-0.1054687 -0.0117,0 -0.0352,0 -0.082,0.023437 -0.19922,0.09375 -0.67969,0.2929687 -1.34766,0.2929687 -0.39843,0 -0.85547,-0.070312 -1.32422,-0.28125 -0.082,-0.023437 -0.10546,-0.023437 -0.1289,-0.023437 -0.0937,0 -0.0937,0.082031 -0.0937,0.234375 v 2.953125 c 0,0.1757813 0,0.2578125 0.14062,0.2578125 0.0703,0 0.082,-0.035156 0.12891,-0.09375 0.10547,-0.1523437 0.48047,-0.6914062 1.27734,-0.6914062 0.52735,0 0.77344,0.4570312 0.85547,0.6328125 0.15235,0.375 0.17578,0.7617187 0.17578,1.2539062 0,0.3515625 0,0.9492188 -0.23437,1.37109379 -0.2461,0.38671875 -0.60938,0.64453125 -1.06641,0.64453125 -0.72656,0 -1.30078,-0.52734375 -1.46484,-1.11328124 0.0234,0.011719 0.0586,0.011719 0.16406,0.011719 0.32813,0 0.50391,-0.2460937 0.50391,-0.4804687 0,-0.2460938 -0.17578,-0.4921875 -0.50391,-0.4921875 -0.14062,0 -0.48047,0.070312 -0.48047,0.5273437 0,0.85546879 0.67969,1.82812504 1.79297,1.82812504 1.16016,0 2.17969,-0.9609375 2.17969,-2.22656254 z m 13.76953,-0.5390625 v -0.2109375 h -9.94922 v 0.2109375 z m 6.63574,-1.4414062 c 0.45703,0 0.52735,0.1289062 0.52735,0.5390625 v 2.68359374 c 0,0.45703125 -0.11719,0.45703125 -0.78516,0.45703125 v 0.3046875 c 0.32812,-0.01171875 0.85547,-0.03515625 1.11328,-0.03515625 0.24609,0 0.73828,0.0234375 1.10156,0.03515625 v -0.3046875 c -0.66797,0 -0.77343,0 -0.77343,-0.45703125 V -4.4189766 l -1.25391,0.09375 c -0.16406,0.011719 -0.17578,0.023437 -0.1875,0.023437 -0.0117,0.011719 -0.0352,0.011719 -0.17578,0.011719 H 233.183 v -1.125 c 0,-0.9960938 0.85547,-1.3945313 1.46485,-1.3945313 0.30468,0 0.66797,0.1054688 0.86718,0.328125 -0.41015,0.023437 -0.46875,0.3046875 -0.46875,0.46875 0,0.328125 0.25782,0.4570313 0.44532,0.4570313 0.22265,0 0.45703,-0.1640625 0.45703,-0.4570313 0,-0.5976562 -0.55078,-1.0078125 -1.28906,-1.0078125 -0.92579,0 -2.10938,0.5039063 -2.10938,1.59375 v 1.1367188 h -0.78516 v 0.3046875 h 0.78516 v 3.22265624 c 0,0.45703125 -0.10547,0.45703125 -0.77344,0.45703125 v 0.3046875 c 0.32813,-0.01171875 0.85547,-0.03515625 1.10157,-0.03515625 0.24609,0 0.73828,0.0234375 1.11328,0.03515625 v -0.3046875 c -0.66797,0 -0.78516,0 -0.78516,-0.45703125 V -3.9853828 Z m 4.45606,2.2734375 c -0.86719,0 -0.86719,-0.9960938 -0.86719,-1.2304688 0,-0.2695312 0.0117,-0.5859375 0.15234,-0.8320312 0.082,-0.1171875 0.31641,-0.3984375 0.71485,-0.3984375 0.86718,0 0.86718,0.9960937 0.86718,1.21875 0,0.2695312 -0.0117,0.5976562 -0.16406,0.84375 -0.082,0.1171875 -0.30469,0.3984375 -0.70312,0.3984375 z m -1.16016,0.3867187 c 0,-0.035156 0,-0.2695312 0.17578,-0.46875 0.38672,0.28125 0.79688,0.3046875 0.98438,0.3046875 0.92578,0 1.60547,-0.6796875 1.60547,-1.453125 0,-0.3632812 -0.15235,-0.7382812 -0.39844,-0.9609375 0.35156,-0.3398437 0.71484,-0.3867187 0.89062,-0.3867187 0.0234,0 0.0703,0 0.10547,0 -0.11719,0.046875 -0.16406,0.1523437 -0.16406,0.2695312 0,0.1757813 0.12891,0.2929688 0.29297,0.2929688 0.0937,0 0.28125,-0.070312 0.28125,-0.2929688 0,-0.1757812 -0.11719,-0.4921875 -0.50391,-0.4921875 -0.19922,0 -0.63281,0.058594 -1.05469,0.46875 -0.42187,-0.328125 -0.84375,-0.3632812 -1.05468,-0.3632812 -0.92578,0 -1.61719,0.6914062 -1.61719,1.453125 0,0.4453125 0.22266,0.8203125 0.46875,1.03125 -0.12891,0.1523437 -0.30469,0.4804687 -0.30469,0.8203125 0,0.31640624 0.12891,0.69140624 0.4336,0.89062499 -0.59766,0.17578125 -0.91407,0.59765625 -0.91407,0.99609375 0,0.71484376 0.98438,1.26562496 2.20313,1.26562496 1.17187,0 2.20312,-0.5039062 2.20312,-1.28906246 0,-0.33984375 -0.14062,-0.85546875 -0.64453,-1.125 -0.52734,-0.28125 -1.10156,-0.28125 -1.71094,-0.28125 -0.24609,0 -0.67968,0 -0.75,-0.0117188 -0.3164,-0.046875 -0.52734,-0.35156244 -0.52734,-0.66796874 z m 1.44141,3.1523438 c -1.00782,0 -1.69922,-0.515625 -1.69922,-1.04296876 0,-0.45703125 0.375,-0.8203125 0.82031,-0.85546875 h 0.58594 c 0.85547,0 1.96875,0 1.96875,0.85546875 0,0.53906246 -0.70313,1.04296876 -1.67578,1.04296876 z m 5.23828,-3.6914063 v -0.5742187 h -2.64844 v 0.5742187 z m 1.66992,1.10156254 c 0,0.45703125 -0.11719,0.45703125 -0.78516,0.45703125 v 0.3046875 c 0.35157,-0.01171875 0.85547,-0.03515625 1.125,-0.03515625 0.25782,0 0.78516,0.0234375 1.11328,0.03515625 v -0.3046875 c -0.65625,0 -0.77343,0 -0.77343,-0.45703125 V -2.5908516 c 0,-1.03125 0.71484,-1.59375 1.34765,-1.59375 0.6211,0 0.73828,0.5390625 0.73828,1.1015625 v 2.32031254 c 0,0.45703125 -0.11718,0.45703125 -0.77343,0.45703125 v 0.3046875 c 0.33984,-0.01171875 0.85547,-0.03515625 1.125,-0.03515625 0.25781,0 0.77343,0.0234375 1.11328,0.03515625 v -0.3046875 c -0.51563,0 -0.77344,0 -0.78516,-0.3046875 V -2.5088203 c 0,-0.8554688 0,-1.171875 -0.30469,-1.5234375 -0.14062,-0.1757813 -0.46875,-0.375 -1.04296,-0.375 -0.84375,0 -1.27735,0.5976562 -1.44141,0.984375 v -3.4921875 l -1.44141,0.1054687 v 0.3164063 c 0.70313,0 0.78516,0.070312 0.78516,0.5507812 z m 5.5459,-1.74609374 c 0.0586,-1.4882813 0.90234,-1.734375 1.24219,-1.734375 1.01953,0 1.125,1.3476562 1.125,1.734375 z m -0.0117,0.2109375 h 2.78906 c 0.21094,0 0.2461,0 0.2461,-0.2109375 0,-0.984375 -0.53907,-1.9570313 -1.78125,-1.9570313 -1.16016,0 -2.07422,1.03125 -2.07422,2.2734375 0,1.33593754 1.04297,2.29687504 2.1914,2.29687504 1.21875,0 1.66407,-1.1015625 1.66407,-1.28906254 0,-0.1054687 -0.082,-0.1171875 -0.12891,-0.1171875 -0.0937,0 -0.11719,0.058594 -0.12891,0.140625 -0.35156,1.01953129 -1.2539,1.01953129 -1.34765,1.01953129 -0.50391,0 -0.90235,-0.29296875 -1.125,-0.66796875 -0.30469,-0.48046874 -0.30469,-1.13671874 -0.30469,-1.48828124 z m 5.08301,-2.109375 -1.39453,0.1171875 v 0.3046875 c 0.65625,0 0.73828,0.058594 0.73828,0.5507812 v 2.67187504 c 0,0.45703125 -0.10547,0.45703125 -0.77344,0.45703125 v 0.3046875 c 0.31641,-0.01171875 0.85547,-0.03515625 1.10156,-0.03515625 0.33985,0 0.69141,0.0234375 1.03125,0.03515625 v -0.3046875 c -0.65625,0 -0.70312,-0.0585938 -0.70312,-0.4453125 z m 0.0469,-1.734375 c 0,-0.3164063 -0.24609,-0.5273438 -0.52734,-0.5273438 -0.31641,0 -0.52735,0.2695313 -0.52735,0.5273438 0,0.2695312 0.21094,0.5273437 0.52735,0.5273437 0.28125,0 0.52734,-0.1992187 0.52734,-0.5273437 z m 3.17871,4.4296875 c -0.86718,0 -0.86718,-0.9960938 -0.86718,-1.2304688 0,-0.2695312 0.0117,-0.5859375 0.15234,-0.8320312 0.082,-0.1171875 0.31641,-0.3984375 0.71484,-0.3984375 0.86719,0 0.86719,0.9960937 0.86719,1.21875 0,0.2695312 -0.0117,0.5976562 -0.16406,0.84375 -0.082,0.1171875 -0.30469,0.3984375 -0.70313,0.3984375 z m -1.16015,0.3867187 c 0,-0.035156 0,-0.2695312 0.17578,-0.46875 0.38672,0.28125 0.79687,0.3046875 0.98437,0.3046875 0.92578,0 1.60547,-0.6796875 1.60547,-1.453125 0,-0.3632812 -0.15234,-0.7382812 -0.39844,-0.9609375 0.35157,-0.3398437 0.71485,-0.3867187 0.89063,-0.3867187 0.0234,0 0.0703,0 0.10547,0 -0.11719,0.046875 -0.16406,0.1523437 -0.16406,0.2695312 0,0.1757813 0.1289,0.2929688 0.29296,0.2929688 0.0937,0 0.28125,-0.070312 0.28125,-0.2929688 0,-0.1757812 -0.11718,-0.4921875 -0.5039,-0.4921875 -0.19922,0 -0.63281,0.058594 -1.05469,0.46875 -0.42187,-0.328125 -0.84375,-0.3632812 -1.05469,-0.3632812 -0.92578,0 -1.61718,0.6914062 -1.61718,1.453125 0,0.4453125 0.22265,0.8203125 0.46875,1.03125 -0.12891,0.1523437 -0.30469,0.4804687 -0.30469,0.8203125 0,0.31640624 0.1289,0.69140624 0.43359,0.89062499 -0.59765,0.17578125 -0.91406,0.59765625 -0.91406,0.99609375 0,0.71484376 0.98437,1.26562496 2.20312,1.26562496 1.17188,0 2.20313,-0.5039062 2.20313,-1.28906246 0,-0.33984375 -0.14063,-0.85546875 -0.64453,-1.125 -0.52735,-0.28125 -1.10156,-0.28125 -1.71094,-0.28125 -0.24609,0 -0.67969,0 -0.75,-0.0117188 -0.31641,-0.046875 -0.52734,-0.35156244 -0.52734,-0.66796874 z m 1.4414,3.1523438 c -1.00781,0 -1.69922,-0.515625 -1.69922,-1.04296876 0,-0.45703125 0.375,-0.8203125 0.82032,-0.85546875 h 0.58593 c 0.85547,0 1.96875,0 1.96875,0.85546875 0,0.53906246 -0.70312,1.04296876 -1.67578,1.04296876 z m 3.58594,-2.58984376 c 0,0.45703125 -0.11719,0.45703125 -0.78516,0.45703125 v 0.3046875 c 0.35157,-0.01171875 0.85547,-0.03515625 1.125,-0.03515625 0.25782,0 0.78516,0.0234375 1.11329,0.03515625 v -0.3046875 c -0.65625,0 -0.77344,0 -0.77344,-0.45703125 V -2.5908516 c 0,-1.03125 0.71484,-1.59375 1.34765,-1.59375 0.6211,0 0.73829,0.5390625 0.73829,1.1015625 v 2.32031254 c 0,0.45703125 -0.11719,0.45703125 -0.77344,0.45703125 v 0.3046875 c 0.33984,-0.01171875 0.85547,-0.03515625 1.125,-0.03515625 0.25781,0 0.77344,0.0234375 1.11328,0.03515625 v -0.3046875 c -0.51563,0 -0.77344,0 -0.78516,-0.3046875 V -2.5088203 c 0,-0.8554688 0,-1.171875 -0.30468,-1.5234375 -0.14063,-0.1757813 -0.46875,-0.375 -1.04297,-0.375 -0.84375,0 -1.27735,0.5976562 -1.44141,0.984375 v -3.4921875 l -1.44141,0.1054687 v 0.3164063 c 0.70313,0 0.78516,0.070312 0.78516,0.5507812 z m 5.87988,-3.22265624 h 1.42969 v -0.3046875 h -1.42969 v -1.8398438 h -0.24609 c -0.0117,0.8203125 -0.31641,1.8867188 -1.28906,1.921875 v 0.2226563 h 0.84375 v 2.7539062 c 0,1.21875004 0.92578,1.33593754 1.28906,1.33593754 0.70312,0 0.98437,-0.703125 0.98437,-1.33593754 v -0.5742187 h -0.24609 v 0.5507812 c 0,0.73828129 -0.30469,1.11328129 -0.66797,1.11328129 -0.66797,0 -0.66797,-0.90234379 -0.66797,-1.07812499 z m 4.06055,0.2226562 c 0,-0.2929687 -0.23437,-0.5273437 -0.52734,-0.5273437 -0.28125,0 -0.52735,0.234375 -0.52735,0.5273437 0,0.28125 0.2461,0.5273438 0.52735,0.5273438 0.29297,0 0.52734,-0.2460938 0.52734,-0.5273438 z m 0,3.23437504 c 0,-0.29296875 -0.23437,-0.52734374 -0.52734,-0.52734374 -0.28125,0 -0.52735,0.23437499 -0.52735,0.52734374 0,0.29296875 0.2461,0.52734375 0.52735,0.52734375 0.29297,0 0.52734,-0.234375 0.52734,-0.52734375 z m 8.21191,-5.84765624 c 0,-0.234375 0,-0.2578125 -0.23437,-0.2578125 -0.60938,0.6328125 -1.48828,0.6328125 -1.80469,0.6328125 v 0.3164062 c 0.19922,0 0.78516,0 1.30078,-0.2578125 v 5.15625004 c 0,0.3515625 -0.0351,0.48046875 -0.92578,0.48046875 h -0.3164 v 0.3046875 c 0.35156,-0.03515625 1.20703,-0.03515625 1.60546,-0.03515625 0.39844,0 1.26563,0 1.61719,0.03515625 v -0.3046875 h -0.3164 c -0.90235,0 -0.92579,-0.1171875 -0.92579,-0.48046875 z m 0,0"
       style="fill:#000000;fill-opacity:1;fill-rule:nonzero;stroke:none"
       aria-label="—fg-format:svg—echo:false—fg-width:2.5—fg-height:1"
       transform="matrix(1.3333333,0,0,1.3333333,19.925333,9.224)" />
  </g>
</svg>
