<?xml version="1.0" encoding="UTF-8" standalone="no"?>
<!-- Created with Inkscape (http://www.inkscape.org/) -->

<svg
   version="1.1"
   id="svg1"
   width="457.9025"
   height="28.035156"
   viewBox="0 0 457.9025 28.035156"
   xmlns="http://www.w3.org/2000/svg"
   xmlns:svg="http://www.w3.org/2000/svg">
  <defs
     id="defs1" />
  <g
     id="g1"
     transform="translate(-0.35937482,0.13671923)">
    <path
       id="path1"
       d="M 9.9495547,-2.5439766 V -2.7549141 H 3.359375e-4 v 0.2109375 z m 8.0888673,-1.4414062 c 0.457031,0 0.527344,0.1289062 0.527344,0.5390625 v 2.68359374 c 0,0.45703125 -0.117188,0.45703125 -0.785157,0.45703125 v 0.3046875 c 0.328125,-0.01171875 0.855469,-0.03515625 1.113282,-0.03515625 0.246093,0 0.738281,0.0234375 1.101562,0.03515625 v -0.3046875 c -0.667969,0 -0.773437,0 -0.773437,-0.45703125 V -4.4189766 l -1.253907,0.09375 c -0.164062,0.011719 -0.175781,0.023437 -0.1875,0.023437 -0.01172,0.011719 -0.03516,0.011719 -0.175781,0.011719 h -1.171875 v -1.125 c 0,-0.9960938 0.855469,-1.3945313 1.464844,-1.3945313 0.304687,0 0.667969,0.1054688 0.867187,0.328125 -0.410156,0.023437 -0.46875,0.3046875 -0.46875,0.46875 0,0.328125 0.257813,0.4570313 0.445313,0.4570313 0.222656,0 0.457031,-0.1640625 0.457031,-0.4570313 0,-0.5976562 -0.550781,-1.0078125 -1.289062,-1.0078125 -0.925782,0 -2.109375,0.5039063 -2.109375,1.59375 v 1.1367188 h -0.785157 v 0.3046875 h 0.785157 v 3.22265624 c 0,0.45703125 -0.105469,0.45703125 -0.773438,0.45703125 v 0.3046875 c 0.328125,-0.01171875 0.855469,-0.03515625 1.101563,-0.03515625 0.246093,0 0.738281,0.0234375 1.113281,0.03515625 v -0.3046875 c -0.667969,0 -0.785156,0 -0.785156,-0.45703125 V -3.9853828 Z m 4.456055,2.2734375 c -0.867188,0 -0.867188,-0.9960938 -0.867188,-1.2304688 0,-0.2695312 0.01172,-0.5859375 0.152344,-0.8320312 0.08203,-0.1171875 0.316406,-0.3984375 0.714844,-0.3984375 0.867187,0 0.867187,0.9960937 0.867187,1.21875 0,0.2695312 -0.01172,0.5976562 -0.164062,0.84375 -0.08203,0.1171875 -0.304688,0.3984375 -0.703125,0.3984375 z m -1.160157,0.3867187 c 0,-0.035156 0,-0.2695312 0.175782,-0.46875 0.386718,0.28125 0.796875,0.3046875 0.984375,0.3046875 0.925781,0 1.605468,-0.6796875 1.605468,-1.453125 0,-0.3632812 -0.152343,-0.7382812 -0.398437,-0.9609375 0.351562,-0.3398437 0.714844,-0.3867187 0.890625,-0.3867187 0.02344,0 0.07031,0 0.105469,0 -0.117188,0.046875 -0.164063,0.1523437 -0.164063,0.2695312 0,0.1757813 0.128906,0.2929688 0.292969,0.2929688 0.09375,0 0.28125,-0.070312 0.28125,-0.2929688 0,-0.1757812 -0.117188,-0.4921875 -0.503906,-0.4921875 -0.199219,0 -0.632813,0.058594 -1.054688,0.46875 -0.421875,-0.328125 -0.84375,-0.3632812 -1.054687,-0.3632812 -0.925782,0 -1.617188,0.6914062 -1.617188,1.453125 0,0.4453125 0.222656,0.8203125 0.46875,1.03125 -0.128906,0.1523437 -0.304687,0.4804687 -0.304687,0.8203125 0,0.31640624 0.128906,0.69140624 0.433593,0.89062499 -0.597656,0.17578125 -0.914062,0.59765625 -0.914062,0.99609375 0,0.71484376 0.984375,1.26562496 2.203125,1.26562496 1.171875,0 2.203125,-0.5039062 2.203125,-1.28906246 0,-0.33984375 -0.140625,-0.85546875 -0.644531,-1.125 -0.527344,-0.28125 -1.101563,-0.28125 -1.710938,-0.28125 -0.246094,0 -0.679687,0 -0.75,-0.0117188 -0.316406,-0.046875 -0.527344,-0.35156254 -0.527344,-0.66796874 z m 1.441407,3.1523438 c -1.007813,0 -1.699219,-0.515625 -1.699219,-1.04296876 0,-0.45703125 0.375,-0.8203125 0.820312,-0.85546875 h 0.585938 c 0.855469,0 1.96875,0 1.96875,0.85546875 0,0.53906246 -0.703125,1.04296876 -1.675781,1.04296876 z m 5.238281,-3.6914063 V -2.4385078 H 25.36557 v 0.5742187 z m 2.314453,-2.4257812 v -1.1601563 c 0,-0.8789062 0.480469,-1.359375 0.914062,-1.359375 0.03516,0 0.175782,0 0.328125,0.070312 -0.117187,0.046875 -0.292968,0.1757813 -0.292968,0.421875 0,0.234375 0.152343,0.4335938 0.421875,0.4335938 0.292968,0 0.433593,-0.1992188 0.433593,-0.4453125 0,-0.3632813 -0.363281,-0.6914063 -0.890625,-0.6914063 -0.703125,0 -1.546875,0.5273438 -1.546875,1.5820313 v 1.1484375 h -0.785156 v 0.3046875 h 0.785156 v 3.22265624 c 0,0.45703125 -0.105468,0.45703125 -0.773437,0.45703125 v 0.3046875 c 0.386719,-0.01171875 0.855469,-0.03515625 1.136719,-0.03515625 0.398437,0 0.867187,0 1.265625,0.03515625 v -0.3046875 h -0.210938 c -0.738281,0 -0.761719,-0.1171875 -0.761719,-0.46875 V -3.9853828 h 1.136719 v -0.3046875 z m 5.985351,2.15625 c 0,-1.2773438 -0.996093,-2.3320313 -2.191406,-2.3320313 -1.253906,0 -2.214844,1.0898438 -2.214844,2.3320313 0,1.28906249 1.03125,2.23828124 2.203125,2.23828124 1.207032,0 2.203125,-0.97265625 2.203125,-2.23828124 z m -2.191406,1.99218749 c -0.433594,0 -0.867187,-0.2109375 -1.136719,-0.66796875 -0.257812,-0.43359374 -0.257812,-1.04296874 -0.257812,-1.40625004 0,-0.3867187 0,-0.9257812 0.246094,-1.359375 0.269531,-0.4570312 0.738281,-0.6679687 1.136718,-0.6679687 0.433594,0 0.867188,0.2226562 1.125,0.6445312 0.257813,0.4335938 0.257813,1.0078125 0.257813,1.3828125 0,0.3632813 0,0.9023438 -0.222656,1.33593754 -0.222657,0.4453125 -0.65625,0.73828125 -1.148438,0.73828125 z m 4.148438,-3.16406249 v -1.1015625 l -1.382813,0.1171875 v 0.3046875 c 0.691406,0 0.773438,0.070312 0.773438,0.5625 v 2.66015624 c 0,0.45703125 -0.105469,0.45703125 -0.773438,0.45703125 v 0.3046875 c 0.386719,-0.01171875 0.855469,-0.03515625 1.136719,-0.03515625 0.398437,0 0.867187,0 1.265625,0.03515625 v -0.3046875 h -0.210938 c -0.738281,0 -0.761718,-0.1171875 -0.761718,-0.46875 V -2.3096016 c 0,-0.984375 0.421875,-1.875 1.183593,-1.875 0.05859,0 0.08203,0 0.105469,0.011719 -0.03516,0.011719 -0.234375,0.1289062 -0.234375,0.3867187 0,0.28125 0.210938,0.4335938 0.433594,0.4335938 0.175781,0 0.421875,-0.1289063 0.421875,-0.4453125 0,-0.3164063 -0.304688,-0.609375 -0.726563,-0.609375 -0.738281,0 -1.089843,0.6679687 -1.230468,1.1015623 z m 3.339843,-0.1171875 v 2.66015624 c 0,0.45703125 -0.117187,0.45703125 -0.785156,0.45703125 v 0.3046875 c 0.351563,-0.01171875 0.855469,-0.03515625 1.125,-0.03515625 0.257813,0 0.785156,0.0234375 1.113281,0.03515625 v -0.3046875 c -0.65625,0 -0.773437,0 -0.773437,-0.45703125 V -2.5908516 c 0,-1.03125 0.714844,-1.59375 1.347656,-1.59375 0.621094,0 0.738281,0.5390625 0.738281,1.1015625 v 2.32031254 c 0,0.45703125 -0.117187,0.45703125 -0.773437,0.45703125 v 0.3046875 c 0.339844,-0.01171875 0.855469,-0.03515625 1.125,-0.03515625 0.257812,0 0.773437,0.0234375 1.113281,0.03515625 v -0.3046875 c -0.667969,0 -0.785156,0 -0.785156,-0.45703125 V -2.5908516 c 0,-1.03125 0.714844,-1.59375 1.347656,-1.59375 0.632813,0 0.738281,0.5390625 0.738281,1.1015625 v 2.32031254 c 0,0.45703125 -0.105468,0.45703125 -0.773437,0.45703125 v 0.3046875 c 0.351562,-0.01171875 0.855469,-0.03515625 1.125,-0.03515625 0.257812,0 0.773437,0.0234375 1.113281,0.03515625 v -0.3046875 c -0.515625,0 -0.761719,0 -0.773437,-0.3046875 V -2.5088203 c 0,-0.8554688 0,-1.171875 -0.316407,-1.5234375 -0.128906,-0.1757813 -0.46875,-0.375 -1.042968,-0.375 -0.832032,0 -1.277344,0.5976562 -1.441407,0.984375 -0.140625,-0.8671875 -0.878906,-0.984375 -1.324218,-0.984375 -0.726563,0 -1.195313,0.4335937 -1.476563,1.0546875 v -1.0546875 l -1.40625,0.1171875 v 0.3046875 c 0.703125,0 0.785156,0.070312 0.785156,0.5625 z m 10.517579,2.66015624 c 0.03516,0.3984375 0.304687,0.8203125 0.773437,0.8203125 0.210938,0 0.820313,-0.140625 0.820313,-0.94921875 V -1.4424141 h -0.246094 v 0.55078129 c 0,0.5859375 -0.246094,0.64453125 -0.363281,0.64453125 -0.328125,0 -0.363282,-0.45703125 -0.363282,-0.50390625 V -2.7431953 c 0,-0.4101563 0,-0.8085938 -0.363281,-1.171875 -0.386719,-0.3867188 -0.878906,-0.5507813 -1.359375,-0.5507813 -0.820312,0 -1.511719,0.46875 -1.511719,1.125 0,0.3046875 0.199219,0.46875 0.457032,0.46875 0.28125,0 0.46875,-0.1992187 0.46875,-0.4570312 0,-0.1171875 -0.05859,-0.4453125 -0.515625,-0.4570313 0.269531,-0.3515625 0.761718,-0.4570312 1.078125,-0.4570312 0.492187,0 1.054687,0.3867187 1.054687,1.2773437 v 0.3632813 c -0.503906,0.035156 -1.207031,0.058594 -1.828125,0.3632812 -0.75,0.3398438 -0.996094,0.8554688 -0.996094,1.28906254 0,0.80859375 0.960938,1.0546875 1.59375,1.0546875 0.65625,0 1.113282,-0.3984375 1.300782,-0.8671875 z m -0.07031,-1.62890624 v 0.9960937 c 0,0.94921879 -0.714844,1.28906254 -1.160156,1.28906254 -0.492188,0 -0.902344,-0.3515625 -0.902344,-0.85546875 0,-0.53906249 0.421875,-1.37109379 2.0625,-1.42968749 z m 3.457031,-1.59375 h 1.429688 v -0.3046875 h -1.429688 v -1.8398438 h -0.246093 c -0.01172,0.8203125 -0.316407,1.8867188 -1.289063,1.921875 v 0.2226563 h 0.84375 v 2.7539062 c 0,1.21875004 0.925781,1.33593754 1.289063,1.33593754 0.703125,0 0.984375,-0.703125 0.984375,-1.33593754 v -0.5742187 h -0.246094 v 0.5507812 c 0,0.73828129 -0.304688,1.11328129 -0.667969,1.11328129 -0.667969,0 -0.667969,-0.90234379 -0.667969,-1.07812499 z m 4.063477,0.2226562 c 0,-0.2929687 -0.234375,-0.5273437 -0.527344,-0.5273437 -0.28125,0 -0.527344,0.234375 -0.527344,0.5273437 0,0.28125 0.246094,0.5273438 0.527344,0.5273438 0.292969,0 0.527344,-0.2460938 0.527344,-0.5273438 z m 0,3.23437504 c 0,-0.29296875 -0.234375,-0.52734374 -0.527344,-0.52734374 -0.28125,0 -0.527344,0.23437499 -0.527344,0.52734374 0,0.29296875 0.246094,0.52734375 0.527344,0.52734375 0.292969,0 0.527344,-0.234375 0.527344,-0.52734375 z M 69.852875,-1.9346016 c 0.222656,0.035156 1.03125,0.1992188 1.03125,0.9140625 0,0.51562504 -0.351563,0.91406254 -1.125,0.91406254 -0.832031,0 -1.195313,-0.57421875 -1.382813,-1.41796874 -0.03516,-0.1289063 -0.03516,-0.1757813 -0.140625,-0.1757813 -0.128906,0 -0.128906,0.070312 -0.128906,0.2578125 v 1.31250004 c 0,0.1640625 0,0.234375 0.105469,0.234375 0.05859,0 0.07031,0 0.257812,-0.19921875 0.01172,-0.01171875 0.01172,-0.03515625 0.199219,-0.22265625 0.433594,0.421875 0.878906,0.421875 1.089844,0.421875 1.148437,0 1.605469,-0.66796875 1.605469,-1.38281254 0,-0.5273437 -0.292969,-0.8203125 -0.421875,-0.9492187 -0.328125,-0.3164063 -0.714844,-0.3984375 -1.136719,-0.46875 -0.550781,-0.1171875 -1.21875,-0.2460938 -1.21875,-0.8203125 0,-0.3515625 0.257812,-0.7617188 1.113281,-0.7617188 1.101563,0 1.148438,0.9023438 1.171875,1.2070313 0,0.09375 0.09375,0.09375 0.117188,0.09375 0.128906,0 0.128906,-0.046875 0.128906,-0.2460938 v -0.9960937 c 0,-0.1757813 0,-0.2460938 -0.117188,-0.2460938 -0.04687,0 -0.07031,0 -0.199218,0.1171875 -0.02344,0.046875 -0.128907,0.1289063 -0.164063,0.1640625 -0.375,-0.28125 -0.785156,-0.28125 -0.9375,-0.28125 -1.21875,0 -1.59375,0.6679688 -1.59375,1.2304688 0,0.3398437 0.164063,0.6210937 0.433594,0.84375 0.316406,0.2578125 0.597656,0.3164062 1.3125,0.4570312 z m 6.00293,-1.3828125 c 0.08203,-0.234375 0.257812,-0.65625 0.914062,-0.6679687 v -0.3046875 c -0.234375,0.011719 -0.515625,0.023437 -0.75,0.023437 -0.234375,0 -0.691406,-0.023437 -0.867187,-0.023437 v 0.3046875 c 0.375,0.011719 0.480468,0.234375 0.480468,0.4335937 0,0.082031 -0.02344,0.1289063 -0.05859,0.234375 l -1.019532,2.54296879 -1.113281,-2.77734379 c -0.05859,-0.140625 -0.05859,-0.1523437 -0.05859,-0.1757812 0,-0.2578125 0.386719,-0.2578125 0.5625,-0.2578125 v -0.3046875 c -0.292968,0 -0.855468,0.023437 -1.078125,0.023437 -0.269531,0 -0.667968,-0.011719 -0.972656,-0.023437 v 0.3046875 c 0.632813,0 0.667969,0.058594 0.796875,0.3632812 l 1.441406,3.53906254 c 0.05859,0.140625 0.07031,0.1875 0.199219,0.1875 0.128906,0 0.175781,-0.08203125 0.210938,-0.1875 z M 79.181,-1.7119453 c -0.867188,0 -0.867188,-0.9960938 -0.867188,-1.2304688 0,-0.2695312 0.01172,-0.5859375 0.152344,-0.8320312 0.08203,-0.1171875 0.316406,-0.3984375 0.714844,-0.3984375 0.867187,0 0.867187,0.9960937 0.867187,1.21875 0,0.2695312 -0.01172,0.5976562 -0.164062,0.84375 -0.08203,0.1171875 -0.304688,0.3984375 -0.703125,0.3984375 z m -1.160156,0.3867187 c 0,-0.035156 0,-0.2695312 0.175781,-0.46875 0.386719,0.28125 0.796875,0.3046875 0.984375,0.3046875 0.925781,0 1.605469,-0.6796875 1.605469,-1.453125 0,-0.3632812 -0.152344,-0.7382812 -0.398438,-0.9609375 0.351563,-0.3398437 0.714844,-0.3867187 0.890625,-0.3867187 0.02344,0 0.07031,0 0.105469,0 -0.117188,0.046875 -0.164063,0.1523437 -0.164063,0.2695312 0,0.1757813 0.128907,0.2929688 0.292969,0.2929688 0.09375,0 0.28125,-0.070312 0.28125,-0.2929688 0,-0.1757812 -0.117187,-0.4921875 -0.503906,-0.4921875 -0.199219,0 -0.632813,0.058594 -1.054688,0.46875 -0.421875,-0.328125 -0.84375,-0.3632812 -1.054687,-0.3632812 -0.925781,0 -1.617188,0.6914062 -1.617188,1.453125 0,0.4453125 0.222657,0.8203125 0.46875,1.03125 -0.128906,0.1523437 -0.304687,0.4804687 -0.304687,0.8203125 0,0.31640624 0.128906,0.69140624 0.433594,0.89062499 -0.597657,0.17578125 -0.914063,0.59765625 -0.914063,0.99609375 0,0.71484376 0.984375,1.26562496 2.203125,1.26562496 1.171875,0 2.203125,-0.5039062 2.203125,-1.28906246 0,-0.33984375 -0.140625,-0.85546875 -0.644531,-1.125 -0.527344,-0.28125 -1.101563,-0.28125 -1.710938,-0.28125 -0.246093,0 -0.679687,0 -0.75,-0.0117188 -0.316406,-0.046875 -0.527343,-0.35156254 -0.527343,-0.66796874 z m 1.441406,3.1523438 c -1.007813,0 -1.699219,-0.515625 -1.699219,-1.04296876 0,-0.45703125 0.375,-0.8203125 0.820313,-0.85546875 h 0.585937 c 0.855469,0 1.96875,0 1.96875,0.85546875 0,0.53906246 -0.703125,1.04296876 -1.675781,1.04296876 z m 17.214844,-4.3710938 v -0.2109375 h -9.949219 v 0.2109375 z m 5.909176,0.035156 c 0.0586,-1.4882813 0.90235,-1.734375 1.24219,-1.734375 1.01953,0 1.125,1.3476562 1.125,1.734375 z m -0.0117,0.2109375 h 2.78907 c 0.21093,0 0.24609,0 0.24609,-0.2109375 0,-0.984375 -0.53906,-1.9570313 -1.78125,-1.9570313 -1.16016,0 -2.07422,1.03125 -2.07422,2.2734375 0,1.33593754 1.04297,2.29687504 2.19141,2.29687504 1.21875,0 1.66406,-1.1015625 1.66406,-1.28906254 0,-0.1054687 -0.082,-0.1171875 -0.12891,-0.1171875 -0.0937,0 -0.11718,0.058594 -0.1289,0.140625 -0.35156,1.01953129 -1.25391,1.01953129 -1.34766,1.01953129 -0.5039,0 -0.90234,-0.29296875 -1.125,-0.66796875 -0.30469,-0.48046874 -0.30469,-1.13671874 -0.30469,-1.48828124 z m 4.48536,0.1289062 c 0,-1.6289062 0.82031,-2.0507812 1.34765,-2.0507812 0.0937,0 0.71485,0.011719 1.06641,0.375 -0.41016,0.023437 -0.46875,0.328125 -0.46875,0.4570312 0,0.2578125 0.1875,0.4570313 0.45703,0.4570313 0.25781,0 0.45703,-0.1640625 0.45703,-0.46875 0,-0.6796875 -0.75,-1.0664063 -1.52344,-1.0664063 -1.24218,0 -2.15625,1.078125 -2.15625,2.3085938 0,1.27734374 0.98438,2.26171874 2.14453,2.26171874 1.33594,0 1.65235,-1.19531254 1.65235,-1.28906254 0,-0.1054687 -0.10547,-0.1054687 -0.12891,-0.1054687 -0.0937,0 -0.11719,0.046875 -0.1289,0.1054687 -0.29297,0.92578129 -0.9375,1.04296879 -1.3125,1.04296879 -0.52735,0 -1.40625,-0.421875 -1.40625,-2.02734379 z m 4.08984,1.40625004 c 0,0.45703125 -0.11719,0.45703125 -0.78516,0.45703125 v 0.3046875 c 0.35157,-0.01171875 0.85547,-0.03515625 1.125,-0.03515625 0.25782,0 0.78516,0.0234375 1.11328,0.03515625 v -0.3046875 c -0.65625,0 -0.77343,0 -0.77343,-0.45703125 V -2.5908516 c 0,-1.03125 0.71484,-1.59375 1.34765,-1.59375 0.6211,0 0.73828,0.5390625 0.73828,1.1015625 v 2.32031254 c 0,0.45703125 -0.11718,0.45703125 -0.77343,0.45703125 v 0.3046875 c 0.33984,-0.01171875 0.85547,-0.03515625 1.125,-0.03515625 0.25781,0 0.77343,0.0234375 1.11328,0.03515625 v -0.3046875 c -0.51563,0 -0.77344,0 -0.78516,-0.3046875 V -2.5088203 c 0,-0.8554688 0,-1.171875 -0.30469,-1.5234375 -0.14062,-0.1757813 -0.46875,-0.375 -1.04296,-0.375 -0.84375,0 -1.27735,0.5976562 -1.44141,0.984375 v -3.4921875 l -1.44141,0.1054687 v 0.3164063 c 0.70313,0 0.78516,0.070312 0.78516,0.5507812 z m 9.12305,-1.37109374 c 0,-1.2773438 -0.9961,-2.3320313 -2.19141,-2.3320313 -1.25391,0 -2.21484,1.0898438 -2.21484,2.3320313 0,1.28906249 1.03125,2.23828124 2.20312,2.23828124 1.20703,0 2.20313,-0.97265625 2.20313,-2.23828124 z m -2.19141,1.99218749 c -0.43359,0 -0.86719,-0.2109375 -1.13672,-0.66796875 -0.25781,-0.43359374 -0.25781,-1.04296874 -0.25781,-1.40625004 0,-0.3867187 0,-0.9257812 0.24609,-1.359375 0.26953,-0.4570312 0.73828,-0.6679687 1.13672,-0.6679687 0.4336,0 0.86719,0.2226562 1.125,0.6445312 0.25781,0.4335938 0.25781,1.0078125 0.25781,1.3828125 0,0.3632813 0,0.9023438 -0.22265,1.33593754 -0.22266,0.4453125 -0.65625,0.73828125 -1.14844,0.73828125 z m 4.39453,-3.62109379 c 0,-0.2929687 -0.23437,-0.5273437 -0.52734,-0.5273437 -0.28125,0 -0.52735,0.234375 -0.52735,0.5273437 0,0.28125 0.2461,0.5273438 0.52735,0.5273438 0.29297,0 0.52734,-0.2460938 0.52734,-0.5273438 z m 0,3.23437504 c 0,-0.29296875 -0.23437,-0.52734374 -0.52734,-0.52734374 -0.28125,0 -0.52735,0.23437499 -0.52735,0.52734374 0,0.29296875 0.2461,0.52734375 0.52735,0.52734375 0.29297,0 0.52734,-0.234375 0.52734,-0.52734375 z M 132.431,-4.2900703 v -1.1601563 c 0,-0.8789062 0.48047,-1.359375 0.91406,-1.359375 0.0352,0 0.17578,0 0.32813,0.070312 -0.11719,0.046875 -0.29297,0.1757813 -0.29297,0.421875 0,0.234375 0.15234,0.4335938 0.42187,0.4335938 0.29297,0 0.4336,-0.1992188 0.4336,-0.4453125 0,-0.3632813 -0.36328,-0.6914063 -0.89063,-0.6914063 -0.70312,0 -1.54687,0.5273438 -1.54687,1.5820313 v 1.1484375 h -0.78516 v 0.3046875 h 0.78516 v 3.22265624 c 0,0.45703125 -0.10547,0.45703125 -0.77344,0.45703125 v 0.3046875 c 0.38672,-0.01171875 0.85547,-0.03515625 1.13672,-0.03515625 0.39844,0 0.86719,0 1.26562,0.03515625 v -0.3046875 h -0.21093 c -0.73829,0 -0.76172,-0.1171875 -0.76172,-0.46875 V -3.9853828 h 1.13672 v -0.3046875 z m 4.61426,3.52734374 c 0.0351,0.3984375 0.30469,0.8203125 0.77344,0.8203125 0.21093,0 0.82031,-0.140625 0.82031,-0.94921875 V -1.4424141 h -0.2461 v 0.55078129 c 0,0.5859375 -0.24609,0.64453125 -0.36328,0.64453125 -0.32812,0 -0.36328,-0.45703125 -0.36328,-0.50390625 V -2.7431953 c 0,-0.4101563 0,-0.8085938 -0.36328,-1.171875 -0.38672,-0.3867188 -0.87891,-0.5507813 -1.35937,-0.5507813 -0.82032,0 -1.51172,0.46875 -1.51172,1.125 0,0.3046875 0.19922,0.46875 0.45703,0.46875 0.28125,0 0.46875,-0.1992187 0.46875,-0.4570312 0,-0.1171875 -0.0586,-0.4453125 -0.51563,-0.4570313 0.26953,-0.3515625 0.76172,-0.4570312 1.07813,-0.4570312 0.49219,0 1.05469,0.3867187 1.05469,1.2773437 v 0.3632813 c -0.50391,0.035156 -1.20704,0.058594 -1.82813,0.3632812 -0.75,0.3398438 -0.99609,0.8554688 -0.99609,1.28906254 0,0.80859375 0.96093,1.0546875 1.59375,1.0546875 0.65625,0 1.11328,-0.3984375 1.30078,-0.8671875 z m -0.0703,-1.62890624 v 0.9960937 c 0,0.94921879 -0.71485,1.28906254 -1.16016,1.28906254 -0.49219,0 -0.90234,-0.3515625 -0.90234,-0.85546875 0,-0.53906249 0.42187,-1.37109379 2.0625,-1.42968749 z m 3.49511,-4.5234375 -1.42969,0.1054687 v 0.3164063 c 0.70313,0 0.77344,0.070312 0.77344,0.5507812 v 5.17968754 c 0,0.45703125 -0.10547,0.45703125 -0.77344,0.45703125 v 0.3046875 c 0.32813,-0.01171875 0.85547,-0.03515625 1.10157,-0.03515625 0.25781,0 0.73828,0.0234375 1.11328,0.03515625 v -0.3046875 c -0.66797,0 -0.78516,0 -0.78516,-0.45703125 z m 3.08203,4.9804687 c 0.22266,0.035156 1.03125,0.1992188 1.03125,0.9140625 0,0.51562504 -0.35156,0.91406254 -1.125,0.91406254 -0.83203,0 -1.19531,-0.57421875 -1.38281,-1.41796874 -0.0352,-0.1289063 -0.0352,-0.1757813 -0.14062,-0.1757813 -0.12891,0 -0.12891,0.070312 -0.12891,0.2578125 v 1.31250004 c 0,0.1640625 0,0.234375 0.10547,0.234375 0.0586,0 0.0703,0 0.25781,-0.19921875 0.0117,-0.01171875 0.0117,-0.03515625 0.19922,-0.22265625 0.43359,0.421875 0.87891,0.421875 1.08984,0.421875 1.14844,0 1.60547,-0.66796875 1.60547,-1.38281254 0,-0.5273437 -0.29297,-0.8203125 -0.42187,-0.9492187 -0.32813,-0.3164063 -0.71485,-0.3984375 -1.13672,-0.46875 -0.55078,-0.1171875 -1.21875,-0.2460938 -1.21875,-0.8203125 0,-0.3515625 0.25781,-0.7617188 1.11328,-0.7617188 1.10156,0 1.14844,0.9023438 1.17187,1.2070313 0,0.09375 0.0937,0.09375 0.11719,0.09375 0.12891,0 0.12891,-0.046875 0.12891,-0.2460938 v -0.9960937 c 0,-0.1757813 0,-0.2460938 -0.11719,-0.2460938 -0.0469,0 -0.0703,0 -0.19922,0.1171875 -0.0234,0.046875 -0.1289,0.1289063 -0.16406,0.1640625 -0.375,-0.28125 -0.78516,-0.28125 -0.9375,-0.28125 -1.21875,0 -1.59375,0.6679688 -1.59375,1.2304688 0,0.3398437 0.16406,0.6210937 0.43359,0.84375 0.31641,0.2578125 0.59766,0.3164062 1.3125,0.4570312 z m 2.97071,-0.5742187 c 0.0586,-1.4882813 0.90234,-1.734375 1.24218,-1.734375 1.01954,0 1.125,1.3476562 1.125,1.734375 z m -0.0117,0.2109375 h 2.78906 c 0.21094,0 0.24609,0 0.24609,-0.2109375 0,-0.984375 -0.53906,-1.9570313 -1.78125,-1.9570313 -1.16015,0 -2.07421,1.03125 -2.07421,2.2734375 0,1.33593754 1.04296,2.29687504 2.1914,2.29687504 1.21875,0 1.66406,-1.1015625 1.66406,-1.28906254 0,-0.1054687 -0.082,-0.1171875 -0.1289,-0.1171875 -0.0937,0 -0.11719,0.058594 -0.12891,0.140625 -0.35156,1.01953129 -1.2539,1.01953129 -1.34765,1.01953129 -0.50391,0 -0.90235,-0.29296875 -1.125,-0.66796875 -0.30469,-0.48046874 -0.30469,-1.13671874 -0.30469,-1.48828124 z m 18.05566,-0.2460938 v -0.2109375 h -9.94922 v 0.2109375 z m 8.08887,-1.4414062 c 0.45703,0 0.52734,0.1289062 0.52734,0.5390625 v 2.68359374 c 0,0.45703125 -0.11718,0.45703125 -0.78515,0.45703125 v 0.3046875 c 0.32812,-0.01171875 0.85547,-0.03515625 1.11328,-0.03515625 0.24609,0 0.73828,0.0234375 1.10156,0.03515625 v -0.3046875 c -0.66797,0 -0.77344,0 -0.77344,-0.45703125 V -4.4189766 l -1.2539,0.09375 c -0.16407,0.011719 -0.17578,0.023437 -0.1875,0.023437 -0.0117,0.011719 -0.0352,0.011719 -0.17578,0.011719 h -1.17188 v -1.125 c 0,-0.9960938 0.85547,-1.3945313 1.46484,-1.3945313 0.30469,0 0.66797,0.1054688 0.86719,0.328125 -0.41015,0.023437 -0.46875,0.3046875 -0.46875,0.46875 0,0.328125 0.25781,0.4570313 0.44531,0.4570313 0.22266,0 0.45704,-0.1640625 0.45704,-0.4570313 0,-0.5976562 -0.55079,-1.0078125 -1.28907,-1.0078125 -0.92578,0 -2.10937,0.5039063 -2.10937,1.59375 v 1.1367188 h -0.78516 v 0.3046875 h 0.78516 v 3.22265624 c 0,0.45703125 -0.10547,0.45703125 -0.77344,0.45703125 v 0.3046875 c 0.32813,-0.01171875 0.85547,-0.03515625 1.10156,-0.03515625 0.2461,0 0.73828,0.0234375 1.11328,0.03515625 v -0.3046875 c -0.66796,0 -0.78515,0 -0.78515,-0.45703125 V -3.9853828 Z m 4.45605,2.2734375 c -0.86718,0 -0.86718,-0.9960938 -0.86718,-1.2304688 0,-0.2695312 0.0117,-0.5859375 0.15234,-0.8320312 0.082,-0.1171875 0.31641,-0.3984375 0.71484,-0.3984375 0.86719,0 0.86719,0.9960937 0.86719,1.21875 0,0.2695312 -0.0117,0.5976562 -0.16406,0.84375 -0.082,0.1171875 -0.30469,0.3984375 -0.70313,0.3984375 z m -1.16015,0.3867187 c 0,-0.035156 0,-0.2695312 0.17578,-0.46875 0.38672,0.28125 0.79687,0.3046875 0.98437,0.3046875 0.92579,0 1.60547,-0.6796875 1.60547,-1.453125 0,-0.3632812 -0.15234,-0.7382812 -0.39843,-0.9609375 0.35156,-0.3398437 0.71484,-0.3867187 0.89062,-0.3867187 0.0234,0 0.0703,0 0.10547,0 -0.11719,0.046875 -0.16406,0.1523437 -0.16406,0.2695312 0,0.1757813 0.1289,0.2929688 0.29297,0.2929688 0.0937,0 0.28125,-0.070312 0.28125,-0.2929688 0,-0.1757812 -0.11719,-0.4921875 -0.50391,-0.4921875 -0.19922,0 -0.63281,0.058594 -1.05469,0.46875 -0.42187,-0.328125 -0.84375,-0.3632812 -1.05469,-0.3632812 -0.92578,0 -1.61718,0.6914062 -1.61718,1.453125 0,0.4453125 0.22265,0.8203125 0.46875,1.03125 -0.12891,0.1523437 -0.30469,0.4804687 -0.30469,0.8203125 0,0.31640624 0.12891,0.69140624 0.43359,0.89062499 -0.59765,0.17578125 -0.91406,0.59765625 -0.91406,0.99609375 0,0.71484376 0.98438,1.26562496 2.20313,1.26562496 1.17187,0 2.20312,-0.5039062 2.20312,-1.28906246 0,-0.33984375 -0.14062,-0.85546875 -0.64453,-1.125 -0.52734,-0.28125 -1.10156,-0.28125 -1.71094,-0.28125 -0.24609,0 -0.67969,0 -0.75,-0.0117188 -0.3164,-0.046875 -0.52734,-0.35156254 -0.52734,-0.66796874 z m 1.4414,3.1523438 c -1.00781,0 -1.69921,-0.515625 -1.69921,-1.04296876 0,-0.45703125 0.375,-0.8203125 0.82031,-0.85546875 h 0.58594 c 0.85546,0 1.96875,0 1.96875,0.85546875 0,0.53906246 -0.70313,1.04296876 -1.67579,1.04296876 z m 5.23829,-3.6914063 v -0.5742187 h -2.64844 v 0.5742187 z m 3.88476,1.10156254 c 0.0352,0.3984375 0.30469,0.8203125 0.77344,0.8203125 0.21094,0 0.82031,-0.140625 0.82031,-0.94921875 V -1.4424141 h -0.24609 v 0.55078129 c 0,0.5859375 -0.2461,0.64453125 -0.36328,0.64453125 -0.32813,0 -0.36329,-0.45703125 -0.36329,-0.50390625 V -2.7431953 c 0,-0.4101563 0,-0.8085938 -0.36328,-1.171875 -0.38672,-0.3867188 -0.8789,-0.5507813 -1.35937,-0.5507813 -0.82031,0 -1.51172,0.46875 -1.51172,1.125 0,0.3046875 0.19922,0.46875 0.45703,0.46875 0.28125,0 0.46875,-0.1992187 0.46875,-0.4570312 0,-0.1171875 -0.0586,-0.4453125 -0.51562,-0.4570313 0.26953,-0.3515625 0.76171,-0.4570312 1.07812,-0.4570312 0.49219,0 1.05469,0.3867187 1.05469,1.2773437 v 0.3632813 c -0.50391,0.035156 -1.20703,0.058594 -1.82813,0.3632812 -0.75,0.3398438 -0.99609,0.8554688 -0.99609,1.28906254 0,0.80859375 0.96094,1.0546875 1.59375,1.0546875 0.65625,0 1.11328,-0.3984375 1.30078,-0.8671875 z m -0.0703,-1.62890624 v 0.9960937 c 0,0.94921879 -0.71485,1.28906254 -1.16016,1.28906254 -0.49219,0 -0.90234,-0.3515625 -0.90234,-0.85546875 0,-0.53906249 0.42187,-1.37109379 2.0625,-1.42968749 z m 3.49219,-4.5234375 -1.42969,0.1054687 v 0.3164063 c 0.70312,0 0.77344,0.070312 0.77344,0.5507812 v 5.17968754 c 0,0.45703125 -0.10547,0.45703125 -0.77344,0.45703125 v 0.3046875 c 0.32812,-0.01171875 0.85547,-0.03515625 1.10156,-0.03515625 0.25781,0 0.73828,0.0234375 1.11328,0.03515625 v -0.3046875 c -0.66797,0 -0.78515,0 -0.78515,-0.45703125 z m 2.76855,2.5078125 -1.39453,0.1171875 v 0.3046875 c 0.65625,0 0.73828,0.058594 0.73828,0.5507812 v 2.67187504 c 0,0.45703125 -0.10547,0.45703125 -0.77344,0.45703125 v 0.3046875 c 0.31641,-0.01171875 0.85547,-0.03515625 1.10157,-0.03515625 0.33984,0 0.6914,0.0234375 1.03125,0.03515625 v -0.3046875 c -0.65625,0 -0.70313,-0.0585938 -0.70313,-0.4453125 z m 0.0469,-1.734375 c 0,-0.3164063 -0.2461,-0.5273438 -0.52735,-0.5273438 -0.3164,0 -0.52734,0.2695313 -0.52734,0.5273438 0,0.2695312 0.21094,0.5273437 0.52734,0.5273437 0.28125,0 0.52735,-0.1992187 0.52735,-0.5273437 z m 3.17871,4.4296875 c -0.86719,0 -0.86719,-0.9960938 -0.86719,-1.2304688 0,-0.2695312 0.0117,-0.5859375 0.15234,-0.8320312 0.082,-0.1171875 0.31641,-0.3984375 0.71485,-0.3984375 0.86718,0 0.86718,0.9960937 0.86718,1.21875 0,0.2695312 -0.0117,0.5976562 -0.16406,0.84375 -0.082,0.1171875 -0.30469,0.3984375 -0.70312,0.3984375 z m -1.16016,0.3867187 c 0,-0.035156 0,-0.2695312 0.17578,-0.46875 0.38672,0.28125 0.79688,0.3046875 0.98438,0.3046875 0.92578,0 1.60547,-0.6796875 1.60547,-1.453125 0,-0.3632812 -0.15235,-0.7382812 -0.39844,-0.9609375 0.35156,-0.3398437 0.71484,-0.3867187 0.89062,-0.3867187 0.0234,0 0.0703,0 0.10547,0 -0.11719,0.046875 -0.16406,0.1523437 -0.16406,0.2695312 0,0.1757813 0.12891,0.2929688 0.29297,0.2929688 0.0937,0 0.28125,-0.070312 0.28125,-0.2929688 0,-0.1757812 -0.11719,-0.4921875 -0.50391,-0.4921875 -0.19922,0 -0.63281,0.058594 -1.05469,0.46875 -0.42187,-0.328125 -0.84375,-0.3632812 -1.05468,-0.3632812 -0.92578,0 -1.61719,0.6914062 -1.61719,1.453125 0,0.4453125 0.22266,0.8203125 0.46875,1.03125 -0.12891,0.1523437 -0.30469,0.4804687 -0.30469,0.8203125 0,0.31640624 0.12891,0.69140624 0.4336,0.89062499 -0.59766,0.17578125 -0.91407,0.59765625 -0.91407,0.99609375 0,0.71484376 0.98438,1.26562496 2.20313,1.26562496 1.17187,0 2.20312,-0.5039062 2.20312,-1.28906246 0,-0.33984375 -0.14062,-0.85546875 -0.64453,-1.125 -0.52734,-0.28125 -1.10156,-0.28125 -1.71094,-0.28125 -0.24609,0 -0.67968,0 -0.75,-0.0117188 -0.3164,-0.046875 -0.52734,-0.35156254 -0.52734,-0.66796874 z m 1.44141,3.1523438 c -1.00782,0 -1.69922,-0.515625 -1.69922,-1.04296876 0,-0.45703125 0.375,-0.8203125 0.82031,-0.85546875 h 0.58594 c 0.85547,0 1.96875,0 1.96875,0.85546875 0,0.53906246 -0.70313,1.04296876 -1.67578,1.04296876 z m 3.58593,-5.25 v 2.66015624 c 0,0.45703125 -0.11718,0.45703125 -0.78515,0.45703125 v 0.3046875 c 0.35156,-0.01171875 0.85547,-0.03515625 1.125,-0.03515625 0.25781,0 0.78515,0.0234375 1.11328,0.03515625 v -0.3046875 c -0.65625,0 -0.77344,0 -0.77344,-0.45703125 V -2.5908516 c 0,-1.03125 0.71485,-1.59375 1.34766,-1.59375 0.62109,0 0.73828,0.5390625 0.73828,1.1015625 v 2.32031254 c 0,0.45703125 -0.11719,0.45703125 -0.77344,0.45703125 v 0.3046875 c 0.33985,-0.01171875 0.85547,-0.03515625 1.125,-0.03515625 0.25781,0 0.77344,0.0234375 1.11328,0.03515625 v -0.3046875 c -0.51562,0 -0.77343,0 -0.78515,-0.3046875 V -2.5088203 c 0,-0.8554688 0,-1.171875 -0.30469,-1.5234375 -0.14063,-0.1757813 -0.46875,-0.375 -1.04297,-0.375 -0.72656,0 -1.19531,0.4335937 -1.47656,1.0546875 v -1.0546875 l -1.40625,0.1171875 v 0.3046875 c 0.70312,0 0.78515,0.070312 0.78515,0.5625 z m 6.33399,-0.3398438 c 0,-0.2929687 -0.23438,-0.5273437 -0.52735,-0.5273437 -0.28125,0 -0.52734,0.234375 -0.52734,0.5273437 0,0.28125 0.24609,0.5273438 0.52734,0.5273438 0.29297,0 0.52735,-0.2460938 0.52735,-0.5273438 z m 0,3.23437504 c 0,-0.29296875 -0.23438,-0.52734374 -0.52735,-0.52734374 -0.28125,0 -0.52734,0.23437499 -0.52734,0.52734374 0,0.29296875 0.24609,0.52734375 0.52734,0.52734375 0.29297,0 0.52735,-0.234375 0.52735,-0.52734375 z m 9.36914,-1.64062504 c 0,-1.6289062 0.82031,-2.0507812 1.34766,-2.0507812 0.0937,0 0.71484,0.011719 1.0664,0.375 -0.41015,0.023437 -0.46875,0.328125 -0.46875,0.4570312 0,0.2578125 0.1875,0.4570313 0.45703,0.4570313 0.25782,0 0.45703,-0.1640625 0.45703,-0.46875 0,-0.6796875 -0.75,-1.0664063 -1.52343,-1.0664063 -1.24219,0 -2.15625,1.078125 -2.15625,2.3085938 0,1.27734374 0.98437,2.26171874 2.14453,2.26171874 1.33594,0 1.65234,-1.19531254 1.65234,-1.28906254 0,-0.1054687 -0.10547,-0.1054687 -0.1289,-0.1054687 -0.0937,0 -0.11719,0.046875 -0.12891,0.1054687 -0.29297,0.92578129 -0.9375,1.04296879 -1.3125,1.04296879 -0.52734,0 -1.40625,-0.421875 -1.40625,-2.02734379 z m 4.37988,-0.3398437 c 0.0586,-1.4882813 0.90235,-1.734375 1.24219,-1.734375 1.01953,0 1.125,1.3476562 1.125,1.734375 z m -0.0117,0.2109375 h 2.78907 c 0.21093,0 0.24609,0 0.24609,-0.2109375 0,-0.984375 -0.53906,-1.9570313 -1.78125,-1.9570313 -1.16016,0 -2.07422,1.03125 -2.07422,2.2734375 0,1.33593754 1.04297,2.29687504 2.19141,2.29687504 1.21875,0 1.66406,-1.1015625 1.66406,-1.28906254 0,-0.1054687 -0.082,-0.1171875 -0.12891,-0.1171875 -0.0937,0 -0.11718,0.058594 -0.1289,0.140625 -0.35157,1.01953129 -1.25391,1.01953129 -1.34766,1.01953129 -0.50391,0 -0.90234,-0.29296875 -1.125,-0.66796875 -0.30469,-0.48046874 -0.30469,-1.13671874 -0.30469,-1.48828124 z m 4.42676,-1.125 v 2.66015624 c 0,0.45703125 -0.11719,0.45703125 -0.78516,0.45703125 v 0.3046875 c 0.35157,-0.01171875 0.85547,-0.03515625 1.125,-0.03515625 0.25782,0 0.78516,0.0234375 1.11329,0.03515625 v -0.3046875 c -0.65625,0 -0.77344,0 -0.77344,-0.45703125 V -2.5908516 c 0,-1.03125 0.71484,-1.59375 1.34765,-1.59375 0.6211,0 0.73829,0.5390625 0.73829,1.1015625 v 2.32031254 c 0,0.45703125 -0.11719,0.45703125 -0.77344,0.45703125 v 0.3046875 c 0.33984,-0.01171875 0.85547,-0.03515625 1.125,-0.03515625 0.25781,0 0.77344,0.0234375 1.11328,0.03515625 v -0.3046875 c -0.51563,0 -0.77344,0 -0.78516,-0.3046875 V -2.5088203 c 0,-0.8554688 0,-1.171875 -0.30468,-1.5234375 -0.14063,-0.1757813 -0.46875,-0.375 -1.04297,-0.375 -0.72657,0 -1.19532,0.4335937 -1.47657,1.0546875 v -1.0546875 l -1.40625,0.1171875 v 0.3046875 c 0.70313,0 0.78516,0.070312 0.78516,0.5625 z m 5.87988,-0.5625 h 1.42969 v -0.3046875 h -1.42969 V -6.1299141 H 229.931 c -0.0117,0.8203125 -0.31641,1.8867188 -1.28906,1.921875 v 0.2226563 h 0.84375 v 2.7539062 c 0,1.21875004 0.92578,1.33593754 1.28906,1.33593754 0.70312,0 0.98437,-0.703125 0.98437,-1.33593754 v -0.5742187 h -0.24609 v 0.5507812 c 0,0.73828129 -0.30469,1.11328129 -0.66797,1.11328129 -0.66797,0 -0.66797,-0.90234379 -0.66797,-1.07812499 z m 3.26368,1.4765625 c 0.0586,-1.4882813 0.90234,-1.734375 1.24218,-1.734375 1.01953,0 1.125,1.3476562 1.125,1.734375 z m -0.0117,0.2109375 h 2.78906 c 0.21094,0 0.24609,0 0.24609,-0.2109375 0,-0.984375 -0.53906,-1.9570313 -1.78125,-1.9570313 -1.16015,0 -2.07422,1.03125 -2.07422,2.2734375 0,1.33593754 1.04297,2.29687504 2.19141,2.29687504 1.21875,0 1.66406,-1.1015625 1.66406,-1.28906254 0,-0.1054687 -0.082,-0.1171875 -0.1289,-0.1171875 -0.0937,0 -0.11719,0.058594 -0.12891,0.140625 -0.35156,1.01953129 -1.25391,1.01953129 -1.34766,1.01953129 -0.5039,0 -0.90234,-0.29296875 -1.125,-0.66796875 -0.30468,-0.48046874 -0.30468,-1.13671874 -0.30468,-1.48828124 z m 4.98925,-1.0078125 v -1.1015625 l -1.38281,0.1171875 v 0.3046875 c 0.69141,0 0.77344,0.070312 0.77344,0.5625 v 2.66015624 c 0,0.45703125 -0.10547,0.45703125 -0.77344,0.45703125 v 0.3046875 c 0.38672,-0.01171875 0.85547,-0.03515625 1.13672,-0.03515625 0.39844,0 0.86719,0 1.26563,0.03515625 v -0.3046875 H 239.227 c -0.73828,0 -0.76172,-0.1171875 -0.76172,-0.46875 V -2.3096016 c 0,-0.984375 0.42187,-1.875 1.18359,-1.875 0.0586,0 0.082,0 0.10547,0.011719 -0.0352,0.011719 -0.23437,0.1289062 -0.23437,0.3867187 0,0.28125 0.21093,0.4335938 0.43359,0.4335938 0.17578,0 0.42188,-0.1289063 0.42188,-0.4453125 0,-0.3164063 -0.30469,-0.609375 -0.72657,-0.609375 -0.73828,0 -1.08984,0.6679687 -1.23047,1.1015623 z m 16.97168,0.7617187 v -0.2109375 h -9.94921 v 0.2109375 z m 8.08594,-1.4414062 c 0.45703,0 0.52735,0.1289062 0.52735,0.5390625 v 2.68359374 c 0,0.45703125 -0.11719,0.45703125 -0.78516,0.45703125 v 0.3046875 c 0.32812,-0.01171875 0.85547,-0.03515625 1.11328,-0.03515625 0.24609,0 0.73828,0.0234375 1.10156,0.03515625 v -0.3046875 c -0.66797,0 -0.77343,0 -0.77343,-0.45703125 V -4.4189766 l -1.25391,0.09375 c -0.16406,0.011719 -0.17578,0.023437 -0.1875,0.023437 -0.0117,0.011719 -0.0352,0.011719 -0.17578,0.011719 h -1.17188 v -1.125 c 0,-0.9960938 0.85547,-1.3945313 1.46485,-1.3945313 0.30468,0 0.66797,0.1054688 0.86718,0.328125 -0.41015,0.023437 -0.46875,0.3046875 -0.46875,0.46875 0,0.328125 0.25782,0.4570313 0.44532,0.4570313 0.22265,0 0.45703,-0.1640625 0.45703,-0.4570313 0,-0.5976562 -0.55078,-1.0078125 -1.28906,-1.0078125 -0.92579,0 -2.10938,0.5039063 -2.10938,1.59375 v 1.1367188 h -0.78516 v 0.3046875 h 0.78516 v 3.22265624 c 0,0.45703125 -0.10547,0.45703125 -0.77344,0.45703125 v 0.3046875 c 0.32813,-0.01171875 0.85547,-0.03515625 1.10157,-0.03515625 0.24609,0 0.73828,0.0234375 1.11328,0.03515625 v -0.3046875 c -0.66797,0 -0.78516,0 -0.78516,-0.45703125 V -3.9853828 Z m 4.45899,2.2734375 c -0.86719,0 -0.86719,-0.9960938 -0.86719,-1.2304688 0,-0.2695312 0.0117,-0.5859375 0.15234,-0.8320312 0.082,-0.1171875 0.31641,-0.3984375 0.71485,-0.3984375 0.86718,0 0.86718,0.9960937 0.86718,1.21875 0,0.2695312 -0.0117,0.5976562 -0.16406,0.84375 -0.082,0.1171875 -0.30469,0.3984375 -0.70312,0.3984375 z m -1.16016,0.3867187 c 0,-0.035156 0,-0.2695312 0.17578,-0.46875 0.38672,0.28125 0.79688,0.3046875 0.98438,0.3046875 0.92578,0 1.60546,-0.6796875 1.60546,-1.453125 0,-0.3632812 -0.15234,-0.7382812 -0.39843,-0.9609375 0.35156,-0.3398437 0.71484,-0.3867187 0.89062,-0.3867187 0.0234,0 0.0703,0 0.10547,0 -0.11719,0.046875 -0.16406,0.1523437 -0.16406,0.2695312 0,0.1757813 0.1289,0.2929688 0.29297,0.2929688 0.0937,0 0.28125,-0.070312 0.28125,-0.2929688 0,-0.1757812 -0.11719,-0.4921875 -0.50391,-0.4921875 -0.19922,0 -0.63281,0.058594 -1.05469,0.46875 -0.42187,-0.328125 -0.84375,-0.3632812 -1.05468,-0.3632812 -0.92579,0 -1.61719,0.6914062 -1.61719,1.453125 0,0.4453125 0.22265,0.8203125 0.46875,1.03125 -0.12891,0.1523437 -0.30469,0.4804687 -0.30469,0.8203125 0,0.31640624 0.12891,0.69140624 0.43359,0.89062499 -0.59765,0.17578125 -0.91406,0.59765625 -0.91406,0.99609375 0,0.71484376 0.98438,1.26562496 2.20313,1.26562496 1.17187,0 2.20312,-0.5039062 2.20312,-1.28906246 0,-0.33984375 -0.14062,-0.85546875 -0.64453,-1.125 -0.52734,-0.28125 -1.10156,-0.28125 -1.71094,-0.28125 -0.24609,0 -0.67968,0 -0.75,-0.0117188 -0.3164,-0.046875 -0.52734,-0.35156254 -0.52734,-0.66796874 z m 1.44141,3.1523438 c -1.00782,0 -1.69922,-0.515625 -1.69922,-1.04296876 0,-0.45703125 0.375,-0.8203125 0.82031,-0.85546875 h 0.58594 c 0.85547,0 1.96875,0 1.96875,0.85546875 0,0.53906246 -0.70313,1.04296876 -1.67578,1.04296876 z m 5.23828,-3.6914063 V -2.4385078 H 270.806 v 0.5742187 z m 6.72949,-1.4882812 c 0.17578,-0.4921875 0.49219,-0.6210938 0.84375,-0.6328125 v -0.3046875 c -0.22266,0.011719 -0.51563,0.023437 -0.72656,0.023437 -0.29297,0 -0.73828,-0.023437 -0.9375,-0.023437 v 0.3046875 c 0.36328,0.011719 0.58593,0.1875 0.58593,0.4804687 0,0.058594 0,0.082031 -0.0469,0.2109375 l -0.91406,2.54296879 -0.98438,-2.77734379 c -0.0351,-0.1171875 -0.0469,-0.140625 -0.0469,-0.1875 0,-0.2695312 0.38672,-0.2695312 0.58593,-0.2695312 v -0.3046875 c -0.29296,0 -0.79687,0.023437 -1.03125,0.023437 -0.30468,0 -0.59765,-0.011719 -0.89062,-0.023437 v 0.3046875 c 0.36328,0 0.52734,0.023437 0.62109,0.1523437 0.0586,0.058594 0.16407,0.3515625 0.23438,0.5390625 l -0.85547,2.41406254 -0.94922,-2.66015624 c -0.0469,-0.1171875 -0.0469,-0.140625 -0.0469,-0.1757813 0,-0.2695312 0.38671,-0.2695312 0.58593,-0.2695312 v -0.3046875 c -0.29297,0 -0.85547,0.023437 -1.08984,0.023437 -0.0352,0 -0.5625,-0.011719 -0.92578,-0.023437 v 0.3046875 c 0.5039,0 0.62109,0.035156 0.73828,0.3515625 l 1.25391,3.52734374 c 0.0586,0.140625 0.082,0.2109375 0.21093,0.2109375 0.12891,0 0.15235,-0.05859375 0.19922,-0.19921875 l 1.00781,-2.81249999 1.01954,2.82421874 c 0.0351,0.1171875 0.0703,0.1875 0.19921,0.1875 0.12891,0 0.15235,-0.08203125 0.19922,-0.1875 z m 2.78906,-1.0546875 -1.39453,0.1171875 v 0.3046875 c 0.65625,0 0.73828,0.058594 0.73828,0.5507812 v 2.67187504 c 0,0.45703125 -0.10547,0.45703125 -0.77344,0.45703125 v 0.3046875 c 0.31641,-0.01171875 0.85547,-0.03515625 1.10157,-0.03515625 0.33984,0 0.6914,0.0234375 1.03125,0.03515625 v -0.3046875 c -0.65625,0 -0.70313,-0.0585938 -0.70313,-0.4453125 z m 0.0469,-1.734375 c 0,-0.3164063 -0.2461,-0.5273438 -0.52735,-0.5273438 -0.3164,0 -0.52734,0.2695313 -0.52734,0.5273438 0,0.2695312 0.21094,0.5273437 0.52734,0.5273437 0.28125,0 0.52735,-0.1992187 0.52735,-0.5273437 z m 4.74902,5.58984374 v 0.65625 l 1.46484,-0.10546875 v -0.3046875 c -0.70312,0 -0.77343,-0.0703125 -0.77343,-0.5625 V -6.9150703 l -1.44141,0.1054687 v 0.3164063 c 0.70313,0 0.78516,0.070312 0.78516,0.5507812 v 2.15625 c -0.29297,-0.3632812 -0.72657,-0.6210937 -1.26563,-0.6210937 -1.17187,0 -2.21484,0.984375 -2.21484,2.2617187 0,1.26562504 0.97265,2.25000004 2.10937,2.25000004 0.64453,0 1.08985,-0.33984375 1.33594,-0.65625 z m 0,-2.67187504 v 2.0507813 c 0,0.17578124 0,0.19921874 -0.10547,0.36328124 -0.30469,0.48046875 -0.75,0.703125 -1.18359,0.703125 -0.44531,0 -0.79688,-0.2578125 -1.04297,-0.64453125 -0.25781,-0.41015629 -0.29297,-0.97265629 -0.29297,-1.38281249 0,-0.3632813 0.0234,-0.9609375 0.31641,-1.4179688 0.21093,-0.3046875 0.58593,-0.6328125 1.125,-0.6328125 0.35156,0 0.76172,0.1523438 1.07812,0.5976563 0.10547,0.1640625 0.10547,0.1875 0.10547,0.3632812 z m 3.47168,-0.7617187 h 1.42969 v -0.3046875 h -1.42969 v -1.8398438 h -0.24609 c -0.0117,0.8203125 -0.31641,1.8867188 -1.28907,1.921875 v 0.2226563 h 0.84375 v 2.7539062 c 0,1.21875004 0.92579,1.33593754 1.28907,1.33593754 0.70312,0 0.98437,-0.703125 0.98437,-1.33593754 v -0.5742187 h -0.24609 v 0.5507812 c 0,0.73828129 -0.30469,1.11328129 -0.66797,1.11328129 -0.66797,0 -0.66797,-0.90234379 -0.66797,-1.07812499 z m 3.25488,3.22265624 c 0,0.45703125 -0.11718,0.45703125 -0.78515,0.45703125 v 0.3046875 c 0.35156,-0.01171875 0.85547,-0.03515625 1.125,-0.03515625 0.25781,0 0.78515,0.0234375 1.11328,0.03515625 v -0.3046875 c -0.65625,0 -0.77344,0 -0.77344,-0.45703125 V -2.5908516 c 0,-1.03125 0.71484,-1.59375 1.34766,-1.59375 0.62109,0 0.73828,0.5390625 0.73828,1.1015625 v 2.32031254 c 0,0.45703125 -0.11719,0.45703125 -0.77344,0.45703125 v 0.3046875 c 0.33984,-0.01171875 0.85547,-0.03515625 1.125,-0.03515625 0.25781,0 0.77344,0.0234375 1.11328,0.03515625 v -0.3046875 c -0.51562,0 -0.77344,0 -0.78515,-0.3046875 V -2.5088203 c 0,-0.8554688 0,-1.171875 -0.30469,-1.5234375 -0.14063,-0.1757813 -0.46875,-0.375 -1.04297,-0.375 -0.84375,0 -1.27734,0.5976562 -1.44141,0.984375 v -3.4921875 l -1.4414,0.1054687 v 0.3164063 c 0.70312,0 0.78515,0.070312 0.78515,0.5507812 z m 6.34278,-3.00000004 c 0,-0.2929687 -0.23438,-0.5273437 -0.52735,-0.5273437 -0.28125,0 -0.52734,0.234375 -0.52734,0.5273437 0,0.28125 0.24609,0.5273438 0.52734,0.5273438 0.29297,0 0.52735,-0.2460938 0.52735,-0.5273438 z m 0,3.23437504 c 0,-0.29296875 -0.23438,-0.52734374 -0.52735,-0.52734374 -0.28125,0 -0.52734,0.23437499 -0.52734,0.52734374 0,0.29296875 0.24609,0.52734375 0.52734,0.52734375 0.29297,0 0.52735,-0.234375 0.52735,-0.52734375 z M 313.5151,-2.0049141 c 0,-1.1835937 -0.82031,-2.1796875 -1.89843,-2.1796875 -0.48047,0 -0.90235,0.1640625 -1.26563,0.5039063 v -1.9335938 c 0.19922,0.058594 0.52735,0.1289063 0.84375,0.1289063 1.23047,0 1.9336,-0.9140625 1.9336,-1.0429688 0,-0.058594 -0.0352,-0.1054687 -0.10547,-0.1054687 -0.0117,0 -0.0352,0 -0.082,0.023437 -0.19922,0.09375 -0.67969,0.2929687 -1.34766,0.2929687 -0.39844,0 -0.85547,-0.070312 -1.32422,-0.28125 -0.082,-0.023437 -0.10547,-0.023437 -0.12891,-0.023437 -0.0937,0 -0.0937,0.082031 -0.0937,0.234375 v 2.953125 c 0,0.1757813 0,0.2578125 0.14063,0.2578125 0.0703,0 0.082,-0.035156 0.12891,-0.09375 0.10546,-0.1523437 0.48046,-0.6914062 1.27734,-0.6914062 0.52734,0 0.77344,0.4570312 0.85547,0.6328125 0.15234,0.375 0.17578,0.7617187 0.17578,1.2539062 0,0.3515625 0,0.9492188 -0.23438,1.37109379 -0.24609,0.38671875 -0.60937,0.64453125 -1.0664,0.64453125 -0.72656,0 -1.30078,-0.52734375 -1.46485,-1.11328124 0.0234,0.011719 0.0586,0.011719 0.16407,0.011719 0.32812,0 0.5039,-0.2460937 0.5039,-0.4804687 0,-0.2460938 -0.17578,-0.4921875 -0.5039,-0.4921875 -0.14063,0 -0.48047,0.070312 -0.48047,0.5273437 0,0.85546879 0.67969,1.82812504 1.79297,1.82812504 1.16015,0 2.17968,-0.9609375 2.17968,-2.22656254 z m 15.23731,-0.5390625 v -0.2109375 h -9.94922 v 0.2109375 z M -11.651031,7.9706719 c 0.457031,0 0.527344,0.1289062 0.527344,0.5390625 v 2.6835936 c 0,0.457031 -0.117188,0.457031 -0.785157,0.457031 v 0.304688 c 0.328125,-0.01172 0.855469,-0.03516 1.113282,-0.03516 0.246093,0 0.738281,0.02344 1.101562,0.03516 v -0.304688 c -0.667969,0 -0.773437,0 -0.773437,-0.457031 V 7.5370781 l -1.253907,0.09375 c -0.164062,0.011719 -0.175781,0.023437 -0.1875,0.023437 -0.01172,0.011719 -0.03516,0.011719 -0.175781,0.011719 H -13.2565 v -1.125 c 0,-0.9960938 0.855469,-1.3945313 1.464844,-1.3945313 0.304687,0 0.667969,0.1054688 0.867187,0.328125 -0.410156,0.023437 -0.46875,0.3046875 -0.46875,0.46875 0,0.328125 0.257813,0.4570313 0.445313,0.4570313 0.222656,0 0.457031,-0.1640625 0.457031,-0.4570313 0,-0.5976562 -0.550781,-1.0078125 -1.289062,-1.0078125 -0.925782,0 -2.109375,0.5039063 -2.109375,1.59375 v 1.1367188 h -0.785157 v 0.3046875 h 0.785157 v 3.2226564 c 0,0.457031 -0.105469,0.457031 -0.773438,0.457031 v 0.304688 c 0.328125,-0.01172 0.855469,-0.03516 1.101563,-0.03516 0.246093,0 0.738281,0.02344 1.113281,0.03516 v -0.304688 c -0.667969,0 -0.785156,0 -0.785156,-0.457031 V 7.9706719 Z m 4.4560544,2.2734371 c -0.8671875,0 -0.8671875,-0.9960934 -0.8671875,-1.2304684 0,-0.2695312 0.011719,-0.5859375 0.1523438,-0.8320312 0.082031,-0.1171875 0.3164062,-0.3984375 0.7148437,-0.3984375 0.8671875,0 0.8671875,0.9960937 0.8671875,1.21875 0,0.2695312 -0.011719,0.5976562 -0.1640625,0.84375 -0.082031,0.1171875 -0.3046875,0.3984371 -0.703125,0.3984371 z m -1.1601562,0.386719 c 0,-0.03516 0,-0.269531 0.1757812,-0.46875 0.3867188,0.28125 0.796875,0.304688 0.984375,0.304688 0.9257813,0 1.6054688,-0.6796879 1.6054688,-1.4531254 0,-0.3632812 -0.1523438,-0.7382812 -0.3984375,-0.9609375 0.3515625,-0.3398437 0.7148437,-0.3867187 0.890625,-0.3867187 0.023437,0 0.070312,0 0.1054687,0 -0.1171875,0.046875 -0.1640625,0.1523437 -0.1640625,0.2695312 0,0.1757813 0.1289063,0.2929688 0.2929688,0.2929688 0.09375,0 0.28125,-0.070312 0.28125,-0.2929688 0,-0.1757812 -0.1171875,-0.4921875 -0.5039063,-0.4921875 -0.1992187,0 -0.6328125,0.058594 -1.0546875,0.46875 -0.421875,-0.328125 -0.84375,-0.3632812 -1.0546875,-0.3632812 -0.9257812,0 -1.6171875,0.6914062 -1.6171875,1.453125 0,0.4453125 0.2226563,0.8203125 0.46875,1.0312501 -0.1289062,0.152344 -0.3046875,0.480469 -0.3046875,0.820312 0,0.316407 0.1289063,0.691407 0.4335938,0.890625 -0.5976563,0.175782 -0.9140625,0.597657 -0.9140625,0.996094 0,0.714844 0.984375,1.265625 2.203125,1.265625 1.171875,0 2.203125,-0.503906 2.203125,-1.289062 0,-0.339844 -0.140625,-0.855469 -0.6445313,-1.125 -0.5273437,-0.28125 -1.1015625,-0.28125 -1.7109375,-0.28125 -0.2460937,0 -0.6796875,0 -0.75,-0.01172 -0.3164062,-0.04687 -0.5273437,-0.351563 -0.5273437,-0.667968 z m 1.4414062,3.152344 c -1.0078125,0 -1.6992187,-0.515625 -1.6992187,-1.042969 0,-0.457031 0.375,-0.820312 0.8203125,-0.855469 h 0.5859375 c 0.8554687,0 1.96875,0 1.96875,0.855469 0,0.539063 -0.703125,1.042969 -1.6757813,1.042969 z m 5.241211,-3.691406 V 9.5175469 h -2.6484375 v 0.5742191 z m 1.66699216,1.101562 c 0,0.457031 -0.1171875,0.457031 -0.78515625,0.457031 v 0.304688 c 0.3515625,-0.01172 0.85546875,-0.03516 1.125,-0.03516 0.2578125,0 0.78515629,0.02344 1.11328129,0.03516 v -0.304688 c -0.65625004,0 -0.77343754,0 -0.77343754,-0.457031 V 9.3652031 c 0,-1.03125 0.71484374,-1.59375 1.34765624,-1.59375 0.6210938,0 0.7382813,0.5390625 0.7382813,1.1015625 v 2.3203124 c 0,0.457031 -0.1171875,0.457031 -0.7734375,0.457031 v 0.304688 c 0.3398437,-0.01172 0.8554687,-0.03516 1.125,-0.03516 0.2578125,0 0.7734375,0.02344 1.1132812,0.03516 v -0.304688 c -0.515625,0 -0.7734375,0 -0.7851562,-0.304687 V 9.4472344 c 0,-0.8554688 0,-1.171875 -0.3046875,-1.5234375 -0.140625,-0.1757813 -0.46875,-0.375 -1.0429688,-0.375 -0.84375,0 -1.27734374,0.5976562 -1.44140624,0.984375 V 5.0409844 l -1.44140625,0.1054687 v 0.3164063 c 0.703125,0 0.78515625,0.070312 0.78515625,0.5507812 z M 5.540375,9.4472344 c 0.058594,-1.4882813 0.9023438,-1.734375 1.2421875,-1.734375 1.0195313,0 1.125,1.3476562 1.125,1.734375 z M 5.528656,9.6581719 h 2.7890625 c 0.2109375,0 0.2460937,0 0.2460937,-0.2109375 0,-0.984375 -0.5390625,-1.9570313 -1.78125,-1.9570313 -1.1601562,0 -2.0742187,1.03125 -2.0742187,2.2734375 0,1.3359374 1.0429687,2.2968754 2.1914062,2.2968754 1.21875,0 1.6640625,-1.101563 1.6640625,-1.289063 0,-0.105469 -0.082031,-0.117187 -0.1289062,-0.117187 -0.09375,0 -0.1171875,0.05859 -0.1289063,0.140625 -0.3515625,1.019531 -1.2539062,1.019531 -1.3476562,1.019531 -0.5039063,0 -0.9023438,-0.292969 -1.125,-0.667969 C 5.5286563,10.665984 5.5286563,10.009734 5.528656,9.6581719 Z m 5.085938,-2.109375 -1.3945315,0.1171875 v 0.3046875 c 0.65625,0 0.7382813,0.058594 0.7382813,0.5507812 v 2.6718749 c 0,0.457031 -0.1054688,0.457031 -0.7734375,0.457031 v 0.304688 c 0.3164062,-0.01172 0.8554687,-0.03516 1.1015627,-0.03516 0.339844,0 0.691406,0.02344 1.03125,0.03516 v -0.304688 c -0.65625,0 -0.703125,-0.05859 -0.703125,-0.445312 z m 0.04687,-1.734375 c 0,-0.3164063 -0.246094,-0.5273438 -0.527344,-0.5273438 -0.3164062,0 -0.5273437,0.2695313 -0.5273437,0.5273438 0,0.2695312 0.2109375,0.5273437 0.5273437,0.5273437 0.28125,0 0.527344,-0.1992187 0.527344,-0.5273437 z m 3.175781,4.4296871 c -0.867187,0 -0.867187,-0.9960934 -0.867187,-1.2304684 0,-0.2695312 0.01172,-0.5859375 0.152343,-0.8320312 0.08203,-0.1171875 0.316407,-0.3984375 0.714844,-0.3984375 0.867188,0 0.867188,0.9960937 0.867188,1.21875 0,0.2695312 -0.01172,0.5976562 -0.164063,0.84375 -0.08203,0.1171875 -0.304687,0.3984371 -0.703125,0.3984371 z m -1.160156,0.386719 c 0,-0.03516 0,-0.269531 0.175781,-0.46875 0.386719,0.28125 0.796875,0.304688 0.984375,0.304688 0.925781,0 1.605469,-0.6796879 1.605469,-1.4531254 0,-0.3632812 -0.152344,-0.7382812 -0.398438,-0.9609375 0.351563,-0.3398437 0.714844,-0.3867187 0.890625,-0.3867187 0.02344,0 0.07031,0 0.105469,0 -0.117187,0.046875 -0.164062,0.1523437 -0.164062,0.2695312 0,0.1757813 0.128906,0.2929688 0.292968,0.2929688 0.09375,0 0.28125,-0.070312 0.28125,-0.2929688 0,-0.1757812 -0.117187,-0.4921875 -0.503906,-0.4921875 -0.199219,0 -0.632812,0.058594 -1.054687,0.46875 -0.421875,-0.328125 -0.84375,-0.3632812 -1.054688,-0.3632812 -0.925781,0 -1.617187,0.6914062 -1.617187,1.453125 0,0.4453125 0.222656,0.8203125 0.46875,1.0312501 -0.128907,0.152344 -0.304688,0.480469 -0.304688,0.820312 0,0.316407 0.128906,0.691407 0.433594,0.890625 -0.597656,0.175782 -0.914063,0.597657 -0.914063,0.996094 0,0.714844 0.984375,1.265625 2.203125,1.265625 1.171875,0 2.203125,-0.503906 2.203125,-1.289062 0,-0.339844 -0.140625,-0.855469 -0.644531,-1.125 -0.527344,-0.28125 -1.101562,-0.28125 -1.710937,-0.28125 -0.246094,0 -0.679688,0 -0.75,-0.01172 -0.316407,-0.04687 -0.527344,-0.351563 -0.527344,-0.667968 z m 1.441406,3.152344 c -1.007812,0 -1.699219,-0.515625 -1.699219,-1.042969 0,-0.457031 0.375,-0.820312 0.820313,-0.855469 h 0.585937 c 0.855469,0 1.96875,0 1.96875,0.855469 0,0.539063 -0.703125,1.042969 -1.675781,1.042969 z m 3.588867,-2.589844 c 0,0.457031 -0.117187,0.457031 -0.785156,0.457031 v 0.304688 c 0.351562,-0.01172 0.855469,-0.03516 1.125,-0.03516 0.257812,0 0.785156,0.02344 1.113281,0.03516 v -0.304688 c -0.65625,0 -0.773437,0 -0.773437,-0.457031 V 9.3652031 c 0,-1.03125 0.714843,-1.59375 1.347656,-1.59375 0.621094,0 0.738281,0.5390625 0.738281,1.1015625 v 2.3203124 c 0,0.457031 -0.117187,0.457031 -0.773437,0.457031 v 0.304688 c 0.339843,-0.01172 0.855468,-0.03516 1.125,-0.03516 0.257812,0 0.773437,0.02344 1.113281,0.03516 v -0.304688 c -0.515625,0 -0.773438,0 -0.785156,-0.304687 V 9.4472344 c 0,-0.8554688 0,-1.171875 -0.304688,-1.5234375 -0.140625,-0.1757813 -0.46875,-0.375 -1.042969,-0.375 -0.84375,0 -1.277343,0.5976562 -1.441406,0.984375 V 5.0409844 l -1.441406,0.1054687 v 0.3164063 c 0.703125,0 0.785156,0.070312 0.785156,0.5507812 z M 23.58432,7.9706719 h 1.429688 V 7.6659844 H 23.58432 V 5.8261406 h -0.246093 c -0.01172,0.8203125 -0.316407,1.8867188 -1.289063,1.921875 v 0.2226563 h 0.84375 v 2.7539061 c 0,1.21875 0.925781,1.335938 1.289063,1.335938 0.703125,0 0.984375,-0.703125 0.984375,-1.335938 v -0.574219 h -0.246094 v 0.550782 c 0,0.738281 -0.304688,1.113281 -0.667969,1.113281 -0.667969,0 -0.667969,-0.902344 -0.667969,-1.078125 z m 4.060547,0.2226562 c 0,-0.2929687 -0.234375,-0.5273437 -0.527344,-0.5273437 -0.28125,0 -0.527343,0.234375 -0.527343,0.5273437 0,0.28125 0.246093,0.5273438 0.527343,0.5273438 0.292969,0 0.527344,-0.2460938 0.527344,-0.5273438 z m 0,3.2343749 c 0,-0.292969 -0.234375,-0.527344 -0.527344,-0.527344 -0.28125,0 -0.527343,0.234375 -0.527343,0.527344 0,0.292969 0.246093,0.527344 0.527343,0.527344 0.292969,0 0.527344,-0.234375 0.527344,-0.527344 z m 9.767578,-1.4765624 c 0,-1.1835937 -0.820312,-2.1796875 -1.898437,-2.1796875 -0.480469,0 -0.902344,0.1640625 -1.265625,0.5039063 V 6.3417656 c 0.199219,0.058594 0.527344,0.1289063 0.84375,0.1289063 1.230469,0 1.933594,-0.9140625 1.933594,-1.0429688 0,-0.058594 -0.03516,-0.1054687 -0.105469,-0.1054687 -0.01172,0 -0.03516,0 -0.08203,0.023437 -0.199219,0.09375 -0.679688,0.2929687 -1.347657,0.2929687 -0.398437,0 -0.855468,-0.070312 -1.324218,-0.28125 -0.08203,-0.023437 -0.105469,-0.023437 -0.128907,-0.023437 -0.09375,0 -0.09375,0.082031 -0.09375,0.234375 v 2.953125 c 0,0.1757813 0,0.2578125 0.140625,0.2578125 0.07031,0 0.08203,-0.035156 0.128907,-0.09375 0.105468,-0.1523437 0.480468,-0.6914062 1.277343,-0.6914062 0.527344,0 0.773438,0.4570312 0.855469,0.6328125 0.152344,0.375 0.175781,0.7617187 0.175781,1.2539062 0,0.3515629 0,0.9492189 -0.234375,1.3710939 -0.246093,0.386719 -0.609375,0.644531 -1.066406,0.644531 -0.726562,0 -1.300781,-0.527344 -1.464844,-1.113281 0.02344,0.01172 0.05859,0.01172 0.164063,0.01172 0.328125,0 0.503906,-0.246094 0.503906,-0.480469 0,-0.246094 -0.175781,-0.4921876 -0.503906,-0.4921876 -0.140625,0 -0.480469,0.070312 -0.480469,0.5273436 0,0.855469 0.679688,1.828125 1.792969,1.828125 1.160156,0 2.179687,-0.960937 2.179687,-2.2265624 z m 0,0"
       style="fill:#000000;fill-opacity:1;fill-rule:nonzero;stroke:none"
       aria-label="—fg-format:svg—echo:false—fg-align:center—fg-width:5—&#10;fg-height:5"
       transform="matrix(1.3333333,0,0,1.3333333,19.925333,9.224)" />
  </g>
</svg>
