<?xml version="1.0" encoding="UTF-8" standalone="no"?>
<!-- Created with Inkscape (http://www.inkscape.org/) -->

<svg
   version="1.1"
   id="svg1"
   width="94.466988"
   height="94.466988"
   viewBox="0 0 94.466988 94.466988"
   xmlns="http://www.w3.org/2000/svg"
   xmlns:svg="http://www.w3.org/2000/svg">
  <defs
     id="defs1" />
  <g
     id="g1"
     transform="translate(3.9919699e-5,0.00161069)">
    <path
       id="path1"
       d="M 0,0 V 68.03217 H 68.03217 V 0 Z"
       style="fill:#ffe6e6;fill-opacity:1;fill-rule:nonzero;stroke:none"
       transform="matrix(1.3333333,0,0,-1.3333333,1.8786667,92.586667)" />
    <path
       id="path2"
       d="M 0,0 H 68.03217 M 0,34.01608 H 68.03217 M 0,68.02022 H 68.03217 M 0,0 V 68.03217 M 34.01608,0 V 68.03217 M 68.02022,0 v 68.03217"
       style="fill:none;stroke:#808080;stroke-width:0.3985;stroke-linecap:butt;stroke-linejoin:miter;stroke-miterlimit:10;stroke-dasharray:none;stroke-opacity:1"
       transform="matrix(1.3333333,0,0,-1.3333333,1.8786667,92.586667)" />
    <path
       id="path3"
       d="M 0,0 34.01608,34.01608"
       style="fill:none;stroke:#808080;stroke-width:0.3985;stroke-linecap:butt;stroke-linejoin:miter;stroke-miterlimit:10;stroke-dasharray:none;stroke-opacity:1"
       transform="matrix(1.3333333,0,0,-1.3333333,1.8786667,92.586667)" />
    <path
       id="path4"
       d="M 34.01608,0 68.03217,34.01608"
       style="fill:none;stroke:#808080;stroke-width:0.3985;stroke-linecap:butt;stroke-linejoin:miter;stroke-miterlimit:10;stroke-dasharray:none;stroke-opacity:1"
       transform="matrix(1.3333333,0,0,-1.3333333,1.8786667,92.586667)" />
    <path
       id="path5"
       d="M 0,34.01608 34.01608,68.03217"
       style="fill:none;stroke:#808080;stroke-width:0.3985;stroke-linecap:butt;stroke-linejoin:miter;stroke-miterlimit:10;stroke-dasharray:none;stroke-opacity:1"
       transform="matrix(1.3333333,0,0,-1.3333333,1.8786667,92.586667)" />
    <path
       id="path6"
       d="M 34.01608,34.01608 68.03217,68.03217"
       style="fill:none;stroke:#808080;stroke-width:0.3985;stroke-linecap:butt;stroke-linejoin:miter;stroke-miterlimit:10;stroke-dasharray:none;stroke-opacity:1"
       transform="matrix(1.3333333,0,0,-1.3333333,1.8786667,92.586667)" />
    <path
       id="path7"
       d="M 0,0 H 34.01608 V 34.01608 Z"
       style="fill:#ffb3b3;fill-opacity:1;fill-rule:nonzero;stroke:#ff0000;stroke-width:0.79701;stroke-linecap:butt;stroke-linejoin:miter;stroke-miterlimit:10;stroke-dasharray:none;stroke-opacity:1"
       transform="matrix(1.3333333,0,0,-1.3333333,1.8786667,92.586667)" />
    <path
       id="path8"
       d="M 1.40903,0 C 1.40903,0.77818 0.77818,1.40903 0,1.40903 -0.77818,1.40903 -1.40903,0.77818 -1.40903,0 c 0,-0.77818 0.63085,-1.40903 1.40903,-1.40903 0.77818,0 1.40903,0.63085 1.40903,1.40903 z"
       style="fill:#000000;fill-opacity:1;fill-rule:nonzero;stroke:none"
       transform="matrix(1.3333333,0,0,-1.3333333,1.8786667,92.586667)" />
    <path
       id="path9"
       d="m 1.40903,34.01608 c 0,0.77819 -0.63085,1.40903 -1.40903,1.40903 -0.77818,0 -1.40903,-0.63084 -1.40903,-1.40903 0,-0.7782 0.63085,-1.40904 1.40903,-1.40904 0.77818,0 1.40903,0.63084 1.40903,1.40904 z"
       style="fill:#000000;fill-opacity:1;fill-rule:nonzero;stroke:none"
       transform="matrix(1.3333333,0,0,-1.3333333,1.8786667,92.586667)" />
    <path
       id="path10"
       d="m 1.40903,68.03217 c 0,0.77818 -0.63085,1.40904 -1.40903,1.40904 -0.77818,0 -1.40903,-0.63086 -1.40903,-1.40904 0,-0.7782 0.63085,-1.40905 1.40903,-1.40905 0.77818,0 1.40903,0.63085 1.40903,1.40905 z"
       style="fill:#000000;fill-opacity:1;fill-rule:nonzero;stroke:none"
       transform="matrix(1.3333333,0,0,-1.3333333,1.8786667,92.586667)" />
    <path
       id="path11"
       d="m 35.42511,0 c 0,0.77818 -0.63084,1.40903 -1.40903,1.40903 -0.7782,0 -1.40904,-0.63085 -1.40904,-1.40903 0,-0.77818 0.63084,-1.40903 1.40904,-1.40903 0.77819,0 1.40903,0.63085 1.40903,1.40903 z"
       style="fill:#000000;fill-opacity:1;fill-rule:nonzero;stroke:none"
       transform="matrix(1.3333333,0,0,-1.3333333,1.8786667,92.586667)" />
    <path
       id="path12"
       d="m 35.42511,34.01608 c 0,0.77819 -0.63084,1.40903 -1.40903,1.40903 -0.7782,0 -1.40904,-0.63084 -1.40904,-1.40903 0,-0.7782 0.63084,-1.40904 1.40904,-1.40904 0.77819,0 1.40903,0.63084 1.40903,1.40904 z"
       style="fill:#000000;fill-opacity:1;fill-rule:nonzero;stroke:none"
       transform="matrix(1.3333333,0,0,-1.3333333,1.8786667,92.586667)" />
    <path
       id="path13"
       d="m 35.42511,68.03217 c 0,0.77818 -0.63084,1.40904 -1.40903,1.40904 -0.7782,0 -1.40904,-0.63086 -1.40904,-1.40904 0,-0.7782 0.63084,-1.40905 1.40904,-1.40905 0.77819,0 1.40903,0.63085 1.40903,1.40905 z"
       style="fill:#000000;fill-opacity:1;fill-rule:nonzero;stroke:none"
       transform="matrix(1.3333333,0,0,-1.3333333,1.8786667,92.586667)" />
    <path
       id="path14"
       d="m 69.44121,0 c 0,0.77818 -0.63086,1.40903 -1.40904,1.40903 -0.7782,0 -1.40905,-0.63085 -1.40905,-1.40903 0,-0.77818 0.63085,-1.40903 1.40905,-1.40903 0.77818,0 1.40904,0.63085 1.40904,1.40903 z"
       style="fill:#000000;fill-opacity:1;fill-rule:nonzero;stroke:none"
       transform="matrix(1.3333333,0,0,-1.3333333,1.8786667,92.586667)" />
    <path
       id="path15"
       d="m 69.44121,34.01608 c 0,0.77819 -0.63086,1.40903 -1.40904,1.40903 -0.7782,0 -1.40905,-0.63084 -1.40905,-1.40903 0,-0.7782 0.63085,-1.40904 1.40905,-1.40904 0.77818,0 1.40904,0.63084 1.40904,1.40904 z"
       style="fill:#000000;fill-opacity:1;fill-rule:nonzero;stroke:none"
       transform="matrix(1.3333333,0,0,-1.3333333,1.8786667,92.586667)" />
    <path
       id="path16"
       d="m 69.44121,68.03217 c 0,0.77818 -0.63086,1.40904 -1.40904,1.40904 -0.7782,0 -1.40905,-0.63086 -1.40905,-1.40904 0,-0.7782 0.63085,-1.40905 1.40905,-1.40905 0.77818,0 1.40904,0.63085 1.40904,1.40905 z"
       style="fill:#000000;fill-opacity:1;fill-rule:nonzero;stroke:none"
       transform="matrix(1.3333333,0,0,-1.3333333,1.8786667,92.586667)" />
  </g>
</svg>
